<?xml version="1.0" encoding="utf-8"?>
<!-- Generator: Adobe Illustrator 25.3.1, SVG Export Plug-In . SVG Version: 6.00 Build 0)  -->
<svg version="1.1" id="Layer_1" xmlns="http://www.w3.org/2000/svg" xmlns:xlink="http://www.w3.org/1999/xlink" x="0px" y="0px"
	 viewBox="0 0 1114.3 100" style="enable-background:new 0 0 1114.3 100;" xml:space="preserve">
<style type="text/css">
	.st0{fill-rule:evenodd;clip-rule:evenodd;fill:#FFFFFF;}
	.st1{fill:#FFFFFF;}
</style>
<g id="Layer_2_1_">
	<g id="Layer_1-2">
		<g id="Layer_2-2">
			<g id="Layer_1-2-2">
				<g id="Page-1">
					<g id="Desktop-HD">
						<g id="Group">
							<path id="Fill-1" class="st0" d="M971.1,80.6L971.1,80.6c0.7,0.4,1.2,1,1.5,1.8c0.4,1.3-0.2,2.8-1.5,3.4
								c-1.1,0.5-2.3,0.5-3.4,0c-0.5-0.3-0.9-0.6-1.2-1.1c-0.3-0.5-0.4-1-0.4-1.5c-0.1-1.1,0.6-2.2,1.6-2.7
								C968.8,80,970,80.1,971.1,80.6z M978,80.3v1.4h-1.7v4.5h-1.8v-4.5h-1.8v-1.4H978z M964.9,80.9c0.4,0.4,0.7,0.9,0.7,1.5
								c0,0.4-0.1,0.8-0.3,1.1c-0.2,0.3-0.5,0.6-0.8,0.8l1.2,1.9h-2.1l-0.8-1.6h-1v1.6H960v-5.9h2.8
								C963.5,80.2,964.2,80.4,964.9,80.9z M983.6,80.3v1.3h-3.2v0.9h2.9v1.3h-2.9v0.9h3.3V86h-5.1v-5.9h5L983.6,80.3z M993.1,80.3
								v5.9h-1.5l-2.6-3.3v3.3h-1.7v-5.9h1.5l2.6,3.3v-3.3H993.1z M984.5,86.2h1.9v-5.9h-1.9V86.2z M958.8,80.9L958.8,80.9
								c0.4,0.3,0.6,0.8,0.6,1.3v0.2c0,0.6-0.2,1.2-0.6,1.6c-0.5,0.4-1.2,0.6-1.8,0.6h-1v1.6h-1.8v-5.8h2.8
								C957.6,80.3,958.2,80.5,958.8,80.9z M969.4,81.6c-0.3,0-0.5,0.1-0.7,0.3l0,0c-0.2,0.1-0.4,0.3-0.5,0.6
								c-0.3,0.5-0.3,1.1,0,1.6c0.1,0.2,0.3,0.4,0.5,0.6c0.5,0.3,1,0.3,1.5,0c0.2-0.1,0.4-0.3,0.5-0.6c0.1-0.3,0.2-0.5,0.2-0.8
								c0-0.3-0.1-0.5-0.2-0.8c-0.1-0.2-0.3-0.4-0.5-0.6C969.9,81.7,969.6,81.6,969.4,81.6z M957,81.6h-1v1.6h0.9
								c0.2,0,0.5,0,0.6-0.2l0,0c0.3-0.3,0.3-0.9,0-1.2C957.3,81.6,957.1,81.6,957,81.6z M963.1,81.6h-1.2v1.6h1
								c0.2,0,0.4-0.1,0.6-0.2c0.3-0.3,0.3-0.9,0-1.2C963.5,81.7,963.3,81.6,963.1,81.6z M990,70.1c0.9,0,1.8,0.3,2.6,0.7l-0.7,1.3
								c-0.3-0.2-0.7-0.4-1.1-0.5l0,0c-0.3-0.1-0.7-0.2-1-0.2c-0.1,0-0.3,0-0.4,0.1c-0.1,0.1-0.1,0.2-0.1,0.3c0,0.2,0.1,0.3,0.3,0.4
								c0.3,0.1,0.5,0.2,0.8,0.3c0.4,0.1,0.7,0.2,1.1,0.4c0.3,0.1,0.5,0.3,0.7,0.6c0.2,0.3,0.3,0.6,0.3,0.9c0,0.4-0.1,0.8-0.4,1.1
								c-0.2,0.3-0.5,0.5-0.9,0.6c-0.4,0.1-0.9,0.2-1.3,0.2c-0.5,0-1.1-0.1-1.6-0.3c-0.5-0.1-1-0.4-1.4-0.7l0.7-1.3
								c0.3,0.3,0.7,0.5,1.1,0.7c0.4,0.1,0.7,0.3,1.1,0.3c0.2,0,0.3,0,0.5-0.1c0.1-0.1,0.2-0.2,0.2-0.3c0-0.2-0.1-0.3-0.3-0.4
								c-0.3-0.1-0.5-0.2-0.8-0.3c-0.4-0.1-0.7-0.2-1-0.3c-0.3-0.1-0.5-0.3-0.7-0.5c-0.2-0.3-0.3-0.6-0.3-0.9c0-0.4,0.1-0.7,0.3-1
								c0.2-0.3,0.5-0.5,0.9-0.7C989,70.2,989.5,70.1,990,70.1z M998.2,70.2v1.3H995v1h2.9v1.4H995v0.9h3.3v1.3h-5.1v-5.9
								L998.2,70.2z M972,70.2v1.4h-1.7v4.5h-1.8v-4.5h-1.8v-1.4H972z M984.6,70.2l2.5,5.9h-1.9l-0.4-0.9h-2.5l-0.4,0.9H980l2.6-5.9
								H984.6z M957.4,70.2l2.5,5.9h-2l-0.4-0.9H955l-0.4,0.9h-1.8l2.6-5.9H957.4z M950.3,70.2v4.4h2.6v1.5h-4.4v-5.9H950.3z
								 M947.2,70.8c0.4,0.4,0.6,0.9,0.6,1.5c0,0.6-0.2,1.2-0.6,1.6c-0.5,0.4-1.2,0.6-1.8,0.6h-1v1.6h-1.8v-5.9h2.8
								C946,70.2,946.6,70.4,947.2,70.8z M1001.8,70.2c0.6,0,1.2,0.1,1.7,0.4l0,0c0.5,0.2,0.9,0.6,1.2,1.1c0.3,0.5,0.4,1,0.4,1.5
								c0,0.5-0.1,1.1-0.4,1.5c-0.3,0.4-0.7,0.8-1.2,1c-0.5,0.3-1.1,0.4-1.7,0.4h-2.6v-5.9H1001.8z M977.4,70.2
								c0.4,0,0.8,0.1,1.2,0.2c0.3,0.1,0.6,0.3,0.8,0.5c0.4,0.5,0.4,1.1,0,1.6c-0.2,0.2-0.5,0.4-0.8,0.5c0.4,0,0.7,0.2,0.9,0.5
								c0.4,0.5,0.4,1.3,0,1.8c-0.2,0.3-0.5,0.5-0.8,0.6c-0.4,0.1-0.9,0.2-1.3,0.2h-3.1v-5.9L977.4,70.2z M966.1,70.2v5.9h-1.5
								l-2.6-3.3v3.3h-1.7v-5.9h1.5l2.6,3.3v-3.3H966.1z M977.3,73.8h-1.1v1.1h1.1c0.2,0,0.4,0,0.5-0.1c0.2-0.2,0.3-0.5,0.1-0.7
								l-0.1-0.1C977.7,73.8,977.5,73.7,977.3,73.8C977.3,73.8,977.3,73.8,977.3,73.8L977.3,73.8z M1001.7,71.6h-0.8v3.2h1
								c0.4,0,0.8-0.2,1-0.5l0,0c0.3-0.3,0.4-0.7,0.4-1.1c0-0.8-0.6-1.6-1.5-1.6H1001.7z M983.6,72l-0.7,1.9h1.5L983.6,72z
								 M956.5,72l-0.8,1.9h1.5L956.5,72z M945.4,71.6h-1v1.6h0.9c0.2,0,0.4-0.1,0.6-0.2c0.3-0.3,0.3-0.9,0-1.2
								C945.7,71.6,945.5,71.6,945.4,71.6z M977.3,71.5h-1.1v1h1.1c0.2,0,0.3,0,0.4-0.1c0.1-0.1,0.2-0.2,0.2-0.4
								c0-0.1-0.1-0.3-0.2-0.4C977.6,71.6,977.5,71.5,977.3,71.5z M961.9,15.2c7-0.1,12.8,5.5,13,12.5v2.7l0.6-0.8
								c2.5-3.1,6.3-4.9,10.3-4.9h7v1c-0.1,7.5-5.8,13.7-13.3,14.4h-0.2c-0.5,0-1-0.5-1-1c0-0.5,0.4-0.9,0.9-0.9l0,0h0.2
								c5.9-0.6,10.5-5.2,11.2-11.1v-0.4h-4.8c-5.9-0.1-10.8,4.6-10.9,10.5v6.1h12.5c0.2,0,0.3,0.1,0.4,0.2c0.1,0.1,0.1,0.3,0.1,0.4
								l-5.2,17.6c-0.2,0.5-0.6,0.8-1.1,0.8h-14.7c-0.5,0-0.9-0.3-1.1-0.8L960,43.9c-0.1-0.1-0.1-0.3,0-0.4c0.1-0.1,0.3-0.2,0.4-0.2
								h12.4l0.1-0.3V27.7c-0.1-5.9-5-10.6-10.9-10.5h-4.9v0.3c0.8,6.4,6.2,11.1,12.6,11.1h0.1c0.5,0,0.9,0.4,1,0.9v0.1
								c0,0.5-0.5,1-1,1h-0.2C961.5,30.4,955,24,955,16.2v-1L961.9,15.2z M983.7,45.2h-19.6c-0.4,0-0.7,0.1-1,0.4
								c-0.2,0.3-0.3,0.7-0.1,1l4,12.2c0.3,0.7,1,1.2,1.8,1.2h10.7c0.8,0,1.5-0.5,1.7-1.2l3.6-12.3c0.1-0.3,0-0.7-0.2-1
								C984.3,45.3,984,45.2,983.7,45.2L983.7,45.2z"/>
							<path id="Fill-1-2" class="st0" d="M136.2,73.7c0.4,0,0.9,0.1,1.3,0.2c0.4,0.1,0.8,0.3,1.1,0.6l-0.9,1
								c-0.2-0.2-0.5-0.3-0.7-0.5c-0.3-0.1-0.5-0.2-0.8-0.2c-0.3,0-0.6,0.1-0.9,0.2l0,0c-0.3,0.1-0.5,0.3-0.6,0.6
								c-0.1,0.3-0.2,0.5-0.2,0.8c0,0.3,0.1,0.6,0.2,0.9c0.1,0.3,0.3,0.5,0.6,0.6c0.3,0.1,0.6,0.2,0.9,0.2c0.4,0,0.7-0.1,1-0.3v-1.3
								h1.3v2.2c-0.4,0.2-0.8,0.4-1.2,0.5c-0.4,0.1-0.9,0.2-1.3,0.2c-0.6,0-1.1-0.1-1.6-0.4c-0.5-0.2-0.9-0.6-1.2-1.1
								c-0.5-0.9-0.5-2.1,0-3c0.3-0.4,0.7-0.8,1.2-1C135,73.8,135.6,73.7,136.2,73.7L136.2,73.7z M127.3,74.1c0.5,0.2,0.9,0.6,1.1,1
								l0,0c0.3,0.4,0.4,1,0.4,1.5c0,1.1-0.6,2.1-1.6,2.5c-1,0.5-2.3,0.5-3.3,0c-0.5-0.2-0.9-0.6-1.1-1.1c-0.5-0.9-0.5-2.1,0-3
								c0.3-0.4,0.7-0.7,1.1-1C125,73.5,126.2,73.6,127.3,74.1L127.3,74.1z M152.1,74.1c0.5,0.2,0.8,0.6,1.1,1l0,0
								c0.3,0.4,0.4,1,0.4,1.5c0,1-0.6,2-1.5,2.5c-1,0.5-2.3,0.5-3.3,0c-0.5-0.2-0.8-0.6-1.1-1.1c-0.5-0.9-0.5-2.1,0-3
								c0.3-0.4,0.7-0.7,1.1-1C149.9,73.6,151,73.6,152.1,74.1z M156.1,75.1c0.3,0,0.6,0,0.9,0.1c0.3,0.1,0.6,0.2,0.9,0.4l-0.5,0.9
								c-0.4-0.3-1-0.4-1.5-0.4c-0.1,0-0.2,0-0.3,0.1c-0.1,0-0.1,0.1-0.1,0.2c0,0.1,0.1,0.2,0.2,0.2c0.2,0.1,0.4,0.1,0.6,0.2
								s0.5,0.2,0.8,0.3c0.2,0.1,0.4,0.2,0.6,0.4c0.2,0.2,0.2,0.4,0.2,0.7c0,0.4-0.2,0.8-0.5,1c-0.4,0.3-0.9,0.4-1.4,0.4
								c-0.4,0-0.7-0.1-1.1-0.2c-0.3-0.1-0.6-0.3-0.9-0.5l0.5-0.9c0.2,0.2,0.5,0.3,0.8,0.4c0.3,0.1,0.5,0.1,0.8,0.1
								c0.1,0,0.2,0,0.3-0.1c0.1,0,0.1-0.1,0.1-0.2c0-0.1-0.1-0.2-0.2-0.2c-0.2-0.1-0.4-0.1-0.6-0.2c-0.3-0.1-0.5-0.2-0.8-0.3
								c-0.2-0.1-0.4-0.2-0.5-0.4c-0.2-0.2-0.2-0.4-0.2-0.7c0-0.4,0.2-0.8,0.5-1C155.1,75.1,155.6,75,156.1,75.1z M141.4,73.8
								l1.7,3.3l1.7-3.3h1.7v5.6h-1.4v-3.6l-1.5,3h-1l-1.5-3v3.6h-1.4v-5.6H141.4z M117.6,73.8l2.7,3.4v-3.4h1.4v5.6h-1.4l-2.7-3.4
								v3.4h-1.4v-5.6H117.6z M125.7,74.9c-0.3,0-0.6,0.1-0.8,0.2c-0.2,0.1-0.5,0.4-0.6,0.6c-0.1,0.3-0.2,0.5-0.2,0.8
								c0,0.3,0.1,0.6,0.2,0.8c0.1,0.3,0.3,0.5,0.6,0.6c0.5,0.3,1.1,0.3,1.6,0l0.6-0.6c0.1-0.3,0.2-0.6,0.2-0.9l0,0
								c0-0.3-0.1-0.5-0.2-0.8c-0.1-0.3-0.3-0.5-0.6-0.6C126.2,75,126,74.9,125.7,74.9L125.7,74.9z M150.4,74.9
								c-0.3,0-0.6,0.1-0.8,0.2c-0.2,0.1-0.5,0.4-0.6,0.6c-0.1,0.3-0.2,0.5-0.2,0.8c0,0.3,0.1,0.6,0.2,0.8c0.1,0.3,0.3,0.5,0.6,0.6
								c0.5,0.3,1.1,0.3,1.6,0l0.6-0.6c0.1-0.3,0.2-0.6,0.2-0.9l0,0c0-0.3-0.1-0.5-0.2-0.8c-0.1-0.3-0.3-0.5-0.6-0.6
								C151,75,150.7,74.9,150.4,74.9L150.4,74.9z M137.1,17.6c14.3,0,25.8,11,25.8,24.5s-11.6,24.5-25.8,24.5s-25.8-11-25.8-24.5
								S122.8,17.6,137.1,17.6L137.1,17.6z M120.6,26.5c-8.7,8.1-9.2,21.7-1.1,30.4l0.2,0.2l4.4-4.2l1.6,1.6l-4.4,4.1
								c7,5.9,16.8,7.4,25.3,3.9c8.5-3.6,14-11.5,14-20.4c0-5.6-2.2-11-6.1-15l-4.7,4.5l-1.7-1.5l4.7-4.5
								C143.3,17.8,129.6,18.2,120.6,26.5L120.6,26.5z M129.1,42.9c0.7,0,1.4,0.3,1.9,0.7c0.5,0.5,0.8,1.1,0.8,1.8v1.2h-1.7v-1.2
								c0-0.5-0.4-0.9-0.9-0.9l0,0c-0.3,0-0.5,0.1-0.7,0.3c-0.2,0.2-0.3,0.4-0.3,0.6v5.8c0,0.5,0.4,0.9,0.9,0.9l0,0
								c0.3,0,0.5-0.1,0.7-0.3c0.2-0.2,0.3-0.4,0.3-0.6v-2.1h-0.9v-1.6h2.7v3.7c-0.1,1.5-1.4,2.6-2.9,2.5c-1.3-0.1-2.4-1.2-2.5-2.5
								v-5.8c0-1.3,1-2.5,2.4-2.5L129.1,42.9z M147,43.6c0.5,0.5,0.8,1.1,0.8,1.8v5.8c0,1.5-1.3,2.6-2.7,2.6c0,0,0,0,0,0
								c-0.4,0-0.9-0.1-1.3-0.4c-0.8-0.4-1.3-1.3-1.3-2.2v-5.8c0-1,0.6-1.9,1.6-2.3C145,42.7,146.2,42.9,147,43.6L147,43.6z M141,43
								v10.6h-1.7V47l-1.5,6.6h-1.3l-1.6-6.6v6.6h-1.7V43h2.4l1.6,7.6l1.5-7.6L141,43z M145.1,44.5c-0.3,0-0.5,0.1-0.7,0.3
								c-0.2,0.2-0.3,0.4-0.3,0.6v5.8c0,0.2,0.1,0.5,0.3,0.6c0.2,0.2,0.4,0.3,0.7,0.3c0.5,0,0.9-0.4,0.9-0.9v-5.8
								C146,44.9,145.6,44.5,145.1,44.5L145.1,44.5z M137.1,30.6c1.4-0.1,2.6,1,2.7,2.5c0,0,0,0,0,0v5.8c0,1-0.6,1.9-1.6,2.3
								c-1,0.4-2.2,0.2-2.9-0.6l0,0c-0.5-0.5-0.8-1.1-0.8-1.8V33c0-1.3,1.1-2.4,2.4-2.4c0,0,0,0,0,0L137.1,30.6z M129,30.7l2.2,7.1
								v-7.1h1.7v10.6h-1.8l-2.3-6.7v6.8h-1.7V30.7L129,30.7z M143.1,30.7l2.2,7.1v-7.1h1.7v10.6h-1.8l-2.3-6.8v6.7h-1.7V30.7
								L143.1,30.7z M137,32.2c-0.3,0-0.5,0.1-0.7,0.3c-0.2,0.2-0.3,0.4-0.3,0.6v5.8c0,0.2,0.1,0.5,0.3,0.6c0.2,0.2,0.4,0.3,0.7,0.3
								c0.5,0,0.9-0.4,0.9-0.9v-5.8C138,32.6,137.6,32.2,137,32.2L137,32.2z"/>
							<path id="Fill-1-3" class="st0" d="M38.3,73.8v3.3c0,0.3,0.1,0.6,0.3,0.9c0.5,0.4,1.1,0.4,1.6,0c0.2-0.3,0.3-0.6,0.3-0.9
								v-3.3h1.6v3.3c0,0.4-0.1,0.9-0.3,1.3c-0.2,0.4-0.5,0.7-0.9,0.8c-0.9,0.4-1.9,0.4-2.8,0c-0.4-0.2-0.7-0.5-0.9-0.8
								c-0.2-0.4-0.3-0.8-0.3-1.3v-3.3H38.3z M19.8,74.1c0.5,0.2,0.9,0.6,1.1,1c0.3,0.4,0.4,1,0.4,1.5c0,1.1-0.6,2.1-1.6,2.5
								c-1,0.5-2.3,0.5-3.3,0c-0.5-0.2-0.9-0.5-1.1-1c-0.5-0.9-0.5-2.1,0-3c0.3-0.4,0.7-0.7,1.1-1C17.4,73.6,18.7,73.6,19.8,74.1z
								 M28.8,73.7c0.4,0,0.9,0.1,1.3,0.2c0.4,0.1,0.8,0.3,1.1,0.6l-0.9,1c-0.2-0.2-0.5-0.3-0.7-0.5c-0.3-0.1-0.5-0.2-0.8-0.2
								c-0.3,0-0.6,0.1-0.9,0.2c-0.3,0.1-0.5,0.3-0.6,0.6c-0.1,0.3-0.2,0.5-0.2,0.8c0,0.3,0.1,0.6,0.2,0.9c0.1,0.3,0.3,0.5,0.6,0.6
								c0.3,0.1,0.6,0.2,0.9,0.2c0.4,0,0.7-0.1,1-0.3v-1.5h1.3v2.2c-0.4,0.2-0.8,0.4-1.2,0.5c-0.4,0.1-0.9,0.2-1.3,0.2
								c-0.6,0-1.1-0.1-1.6-0.4c-0.5-0.2-0.9-0.5-1.1-1c-0.5-0.9-0.5-2.1,0-3c0.3-0.4,0.7-0.8,1.2-1C27.6,73.8,28.2,73.7,28.8,73.7z
								 M47.8,73.8V75H46v4.5h-1.5V75h-1.8v-1.2L47.8,73.8z M10,73.8l2.7,3.4v-3.4h1.4v5.6h-1.3L10.1,76v3.4H8.7v-5.6H10z
								 M55.5,73.8l2.7,3.4v-3.4h1.4v5.6h-1.3L55.6,76v3.4h-1.4v-5.6H55.5z M53.1,73.8V75H50v1.1h2.8v1.2H50v1.1h3.2v1.2h-4.8V74
								h4.7L53.1,73.8z M33.7,73.8v4.4h2.5v1.2h-4.1v-5.6H33.7z M18.1,75c-0.3,0-0.6,0.1-0.8,0.2c-0.2,0.1-0.5,0.4-0.6,0.6
								c-0.1,0.3-0.2,0.5-0.2,0.8c0,0.3,0.1,0.6,0.2,0.8c0.1,0.3,0.3,0.5,0.6,0.6c0.3,0.1,0.5,0.2,0.8,0.2c0.3,0,0.6-0.1,0.8-0.2
								c0.2-0.1,0.4-0.4,0.6-0.6c0.1-0.2,0.2-0.5,0.2-0.8l0,0c0-0.3-0.1-0.5-0.2-0.8c-0.1-0.3-0.3-0.5-0.6-0.6
								C18.6,75,18.3,75,18.1,75z M34.1,17.6c14.3,0,25.8,11,25.8,24.5S48.4,66.7,34.1,66.7S8.3,55.7,8.3,42.1S19.9,17.6,34.1,17.6
								L34.1,17.6z M24.6,21.8c-8.5,3.6-14,11.5-14,20.4l0,0c0,5.6,2.2,11,6.1,15l8.6-8.1l1.6,1.6l-8.6,8.1c9.5,8,23.4,7.7,32.4-0.8
								c8.7-8,9.2-21.5,1.2-30.2c0,0,0,0,0,0l-0.4-0.5l-9.2,8.6l-1.6-1.6l9.2-8.7C42.9,19.6,33.1,18.2,24.6,21.8L24.6,21.8z
								 M31.9,51.7c6.3-1.8,9.7-2.8,13.7,2.8C38.5,57.5,36.6,57.1,31.9,51.7L31.9,51.7z M44.2,40c5.7,4.4,6.1,6.3,3,13l0,0
								C41.3,49.2,42.3,46,44.2,40z M25.7,45.7c6.3-1.8,9.6-2.7,13.6,2.8l0,0C32.3,51.6,30.2,51.1,25.7,45.7z M37.9,34.1
								c5.7,4.4,6.1,6.3,2.9,13C35,43.2,36,40.1,37.9,34.1L37.9,34.1z M19.2,39.6c6.3-1.8,9.7-2.8,13.7,2.8
								C25.8,45.4,23.8,45,19.2,39.6L19.2,39.6z M31.5,27.9c5.6,4.4,6.1,6.2,3,13C28.6,37.1,29.6,33.9,31.5,27.9L31.5,27.9z
								 M19.1,27.9c7.5,1.6,8,2,9.4,8.8C21,35.5,20.7,35.1,19.1,27.9L19.1,27.9z"/>
							<g id="Group-22">
								<path id="Fill-1-4" class="st0" d="M314.6,72.5c-0.2,0.1-0.4,0.3-0.5,0.6c-0.3,0.5-0.3,1.1,0,1.6c0.1,0.2,0.3,0.4,0.5,0.6
									c0.2,0.1,0.5,0.2,0.7,0.2c0.2,0,0.5-0.1,0.7-0.2c0.2-0.1,0.4-0.3,0.5-0.6c0.1-0.2,0.2-0.5,0.2-0.8c0-0.3-0.1-0.5-0.2-0.8
									c-0.1-0.2-0.3-0.4-0.5-0.6C315.5,72.2,315,72.2,314.6,72.5 M316.8,71.3c0.5,0.3,0.8,0.6,1.1,1.1c0.5,0.9,0.5,2.1,0,3
									c-0.3,0.5-0.6,0.8-1.1,1.1c-1,0.5-2.2,0.5-3.2,0c-0.5-0.3-0.8-0.6-1.1-1.1c-0.3-0.5-0.4-1-0.4-1.5c0-0.5,0.1-1.1,0.4-1.5
									c0.3-0.4,0.7-0.8,1.1-1.1c0.5-0.3,1-0.4,1.6-0.4C315.7,70.9,316.3,71,316.8,71.3"/>
								<path id="Fill-3" class="st0" d="M320.7,73.8h1c0.4,0.1,0.7-0.2,0.8-0.6c0,0,0,0,0,0c0-0.1,0-0.1,0-0.2
									c0-0.2-0.1-0.4-0.2-0.6c-0.2-0.1-0.4-0.2-0.6-0.2h-1L320.7,73.8z M322.3,76.7l-0.8-1.5h-0.8v1.5H319V71h2.7
									c0.6,0,1.3,0.2,1.8,0.5c0.4,0.4,0.6,0.9,0.6,1.5c0,0.4-0.1,0.7-0.2,1.1c-0.2,0.3-0.4,0.5-0.7,0.7l1.2,1.9L322.3,76.7z"/>
								<path id="Fill-5" class="st0" d="M328.6,73.8h1.5v2.3c-0.3,0.2-0.7,0.4-1.1,0.5c-0.4,0.1-0.9,0.2-1.3,0.2
									c-0.6,0-1.1-0.1-1.6-0.4c-0.5-0.3-0.8-0.6-1.1-1.1c-0.3-0.4-0.4-1-0.4-1.5c0-0.5,0.1-1.1,0.4-1.5c0.3-0.4,0.7-0.8,1.1-1.1
									c0.5-0.3,1-0.4,1.6-0.4c0.4,0,0.9,0.1,1.3,0.2c0.4,0.2,0.7,0.4,1.1,0.6l-1,1.2c-0.2-0.2-0.5-0.4-0.7-0.5
									c-0.3-0.1-0.5-0.2-0.8-0.2c-0.2,0-0.5,0.1-0.7,0.2c-0.2,0.1-0.4,0.3-0.5,0.6c-0.3,0.5-0.3,1.1,0,1.6
									c0.1,0.2,0.3,0.4,0.5,0.6c0.2,0.1,0.5,0.2,0.7,0.2c0.3,0,0.6-0.1,0.9-0.2v-1.3L328.6,73.8z"/>
								<path id="Fill-7" class="st0" d="M332.9,74.6h1.4l-0.7-1.9L332.9,74.6z M335,76.7l-0.3-0.9h-2.3l-0.3,0.9h-1.7l2.4-5.7h1.7
									l2.3,5.7H335z"/>
								<polygon id="Fill-9" class="st0" points="341.1,70.9 342.6,70.9 342.6,76.7 341.2,76.7 338.8,73.6 338.8,76.7 337.2,76.7 
									337.2,70.9 338.7,70.9 341.1,74.2 								"/>
								<polygon id="Fill-11" class="st0" points="343.6,76.7 345.3,76.7 345.3,70.9 343.6,70.9 								"/>
								<path id="Fill-13" class="st0" d="M349.7,72.6c-0.2-0.1-0.5-0.2-0.7-0.2c-0.2,0-0.5,0.1-0.7,0.2c-0.2,0.1-0.4,0.3-0.5,0.5
									c-0.1,0.2-0.2,0.5-0.2,0.8c0,0.3,0.1,0.5,0.2,0.8c0.1,0.2,0.3,0.4,0.5,0.5c0.2,0.1,0.5,0.2,0.7,0.2c0.2,0,0.5-0.1,0.7-0.2
									c0.3-0.1,0.5-0.3,0.7-0.5l1,1c-0.3,0.3-0.7,0.6-1.1,0.8c-0.4,0.2-0.8,0.3-1.3,0.3c-0.5,0-1.1-0.1-1.5-0.4
									c-0.5-0.3-0.8-0.6-1.1-1.1c-0.3-0.5-0.4-1-0.4-1.5c0-0.5,0.1-1.1,0.4-1.5c0.3-0.4,0.6-0.8,1.1-1c0.5-0.3,1-0.4,1.6-0.4
									c0.4,0,0.9,0.1,1.3,0.3c0.4,0.2,0.8,0.4,1.1,0.7l-1,1.2C350.3,72.8,350,72.7,349.7,72.6"/>
								<path id="Fill-14" class="st0" d="M314.6,83.3c0.1-0.2,0.2-0.4,0.2-0.6c0-0.2-0.1-0.4-0.2-0.6c-0.2-0.1-0.4-0.2-0.6-0.2
									h-0.8v1.6h0.8C314.3,83.6,314.5,83.6,314.6,83.3 M315.8,81.3c0.4,0.4,0.6,0.9,0.6,1.5c0,0.6-0.2,1.2-0.6,1.6
									c-0.5,0.4-1.1,0.6-1.7,0.6h-0.9v1.5h-1.7v-5.7h2.6C314.7,80.7,315.3,80.9,315.8,81.3"/>
								<path id="Fill-15" class="st0" d="M318.7,83.6h1c0.2,0,0.4-0.1,0.6-0.2c0.1-0.1,0.2-0.3,0.2-0.5c0-0.2-0.1-0.4-0.2-0.6
									c-0.2-0.1-0.4-0.2-0.6-0.2h-1V83.6z M320.4,86.5l-0.8-1.5h-0.9v1.5H317v-5.7h2.7c0.6,0,1.3,0.2,1.8,0.5
									c0.4,0.4,0.6,0.9,0.6,1.5c0,0.4-0.1,0.7-0.2,1.1c-0.2,0.3-0.4,0.5-0.7,0.7l1.2,1.9L320.4,86.5z"/>
								<path id="Fill-16" class="st0" d="M325,82.2c-0.2,0.1-0.4,0.3-0.5,0.6c-0.1,0.2-0.2,0.5-0.2,0.8c0,0.3,0.1,0.5,0.2,0.8
									c0.1,0.2,0.3,0.4,0.5,0.6c0.2,0.1,0.5,0.2,0.7,0.2c0.2,0,0.5-0.1,0.7-0.2c0.2-0.1,0.4-0.3,0.5-0.6c0.1-0.2,0.2-0.5,0.2-0.8
									c0-0.3-0.1-0.5-0.2-0.8c-0.1-0.3-0.3-0.4-0.5-0.6c-0.2-0.1-0.5-0.2-0.7-0.2C325.4,82.1,325.2,82.1,325,82.2 M327.3,81.1
									c0.4,0.3,0.8,0.6,1.1,1c0.5,0.9,0.5,2.1,0,3c-0.3,0.5-0.6,0.8-1.1,1.1c-1,0.5-2.2,0.5-3.2,0c-0.5-0.3-0.8-0.6-1.1-1.1
									c-0.3-0.5-0.4-1-0.4-1.5c0-0.5,0.1-1.1,0.4-1.5c0.3-0.4,0.6-0.8,1.1-1C325.1,80.5,326.3,80.5,327.3,81.1"/>
								<path id="Fill-17" class="st0" d="M332.9,84.7c0.3-0.3,0.4-0.7,0.4-1.1c0-0.4-0.1-0.8-0.4-1.1c-0.3-0.3-0.6-0.4-1-0.4h-0.8
									v3h0.9C332.3,85.1,332.7,85,332.9,84.7 M333.5,81.1c0.5,0.2,0.8,0.6,1.1,1c0.5,0.9,0.5,2.1,0,3c-0.3,0.4-0.6,0.8-1.1,1
									c-0.5,0.2-1,0.4-1.6,0.4h-2.4v-5.7h2.5C332.5,80.8,333,80.9,333.5,81.1"/>
								<path id="Fill-18" class="st0" d="M337.5,84.8c0.4,0.4,1,0.4,1.4,0c0.2-0.2,0.3-0.5,0.3-0.8v-3.3h1.7V84
									c0,0.5-0.1,0.9-0.3,1.3c-0.2,0.4-0.5,0.7-0.9,0.9c-0.9,0.4-1.9,0.4-2.8,0c-0.4-0.2-0.7-0.5-0.9-0.9
									c-0.2-0.4-0.3-0.8-0.3-1.3v-3.3h1.7V84C337.2,84.3,337.2,84.6,337.5,84.8"/>
								<path id="Fill-19" class="st0" d="M345.1,82.2c-0.2-0.1-0.5-0.2-0.7-0.2c-0.2,0-0.5,0.1-0.7,0.2c-0.2,0.1-0.4,0.3-0.5,0.5
									c-0.1,0.2-0.2,0.5-0.2,0.8c0,0.3,0.1,0.5,0.2,0.8c0.1,0.2,0.3,0.4,0.5,0.5c0.2,0.1,0.5,0.2,0.7,0.2c0.2,0,0.5-0.1,0.7-0.2
									c0.3-0.1,0.5-0.3,0.7-0.5l1,1c-0.3,0.3-0.7,0.6-1.1,0.8c-0.4,0.2-0.8,0.3-1.3,0.3c-0.5,0-1.1-0.1-1.5-0.4
									c-0.5-0.3-0.8-0.6-1.1-1.1c-0.3-0.5-0.4-1-0.4-1.5c0-0.5,0.1-1.1,0.4-1.5c0.3-0.4,0.7-0.8,1.1-1.1c0.5-0.3,1-0.4,1.6-0.4
									c0.4,0,0.9,0.1,1.3,0.3c0.4,0.2,0.8,0.4,1.1,0.7l-1,1.2C345.6,82.6,345.4,82.4,345.1,82.2"/>
								<polygon id="Fill-20" class="st0" points="347.3,80.8 351.9,80.8 351.9,82.1 349,82.1 349,82.9 351.6,82.9 351.6,84.2 
									349,84.2 349,85.2 352,85.2 352,86.4 347.3,86.4 								"/>
								<path id="Fill-21" class="st0" d="M345.1,33.8c-1.2,0.6-2.6,0.8-4,0.5c1.3-2,3.7-3,6.1-2.5
									C346.7,32.6,345.9,33.3,345.1,33.8 M341.3,42.5c-2.6,2.4-5.5,4.5-8.5,6.3l-4.3-4.2c-0.4-0.4-1.2-0.4-1.6,0s-0.4,1.2,0,1.6
									l0,0l3.9,3.8c-4.7,2.8-9.6,5.3-14.7,7.5c0.7-1.8,2.2-4.9,4-8.4l1.4,1.4c0.4,0.4,1.2,0.4,1.6,0s0.4-1.2,0-1.6l0,0l-1.7-1.7
									l-0.2-0.2c1.9-3.5,4-7,6.3-10.3l3.9,3.9c0.4,0.4,1.2,0.4,1.6,0s0.4-1.2,0-1.6l-4.1-4.1c0.8-1,1.6-1.9,2.3-2.7
									c0.3-0.3,0.6-0.4,1-0.4c2.7,0,7.6,4.2,9.1,7.8C341.6,40.7,341.9,41.9,341.3,42.5 M339.6,29.2c0.5-1.1,1.2-2,2.2-2.7
									c0.3,1,0.3,2,0,3c-0.5,1.3-1.3,2.4-2.5,3.2C339,31.5,339.1,30.3,339.6,29.2 M349.1,30.1c-1.6-0.7-3.5-0.8-5.2-0.4
									c0.4-1.8,0.2-3.7-0.6-5.3c-0.3-0.5-0.9-0.7-1.4-0.5c-2,0.8-3.6,2.4-4.4,4.4c-0.4,1.1-0.6,2.2-0.6,3.3c-1.4-1-3-1.7-4.7-1.8
									c-1,0-1.9,0.4-2.6,1c-4.1,4.1-8.9,12.7-10.8,16.2c-1.5,2.9-2.9,5.7-3.9,7.9c-1.6,3.7-1.6,4.3-1,4.9c0.2,0.3,0.6,0.4,0.9,0.4
									c2.4,0,21.6-9.6,28-16.1c0.7-0.7,1.6-2.2,0.5-5.1c-0.4-0.8-0.8-1.6-1.3-2.4h0.5c1.2,0,2.5-0.3,3.6-0.8
									c1.7-1,3.1-2.5,3.7-4.4C349.9,30.9,349.6,30.3,349.1,30.1"/>
							</g>
							<g id="Group-36">
								<path id="Fill-1-5" class="st0" d="M406.5,72.3c-0.2-0.1-0.5-0.2-0.7-0.2c-0.2,0-0.5,0.1-0.7,0.2c-0.2,0.1-0.4,0.3-0.5,0.6
									c-0.3,0.5-0.3,1.1,0,1.6c0.1,0.2,0.3,0.4,0.5,0.6c0.2,0.1,0.5,0.2,0.7,0.2c0.2,0,0.5-0.1,0.7-0.2c0.3-0.1,0.5-0.3,0.7-0.5
									l1,1.1c-0.3,0.3-0.7,0.6-1.1,0.8c-0.4,0.2-0.8,0.3-1.3,0.3c-0.6,0-1.1-0.1-1.6-0.4c-0.5-0.3-0.8-0.6-1.1-1.1
									c-0.3-0.5-0.4-1-0.4-1.6c0-0.5,0.1-1.1,0.4-1.5c0.3-0.5,0.6-0.8,1.1-1.1c0.5-0.3,1-0.4,1.6-0.4c0.4,0,0.9,0.1,1.3,0.3
									c0.4,0.2,0.8,0.5,1.1,0.8l-1,1.2C407.1,72.7,406.8,72.4,406.5,72.3"/>
								<path id="Fill-3-2" class="st0" d="M410.6,74.4h1.4l-0.7-1.9L410.6,74.4z M412.9,76.6l-0.3-0.9h-2.4l-0.3,0.9h-1.9l2.5-5.8
									h1.8l2.4,5.8H412.9z"/>
								<polygon id="Fill-5-2" class="st0" points="415.1,70.7 416.9,70.7 416.9,75.1 419.3,75.1 419.3,76.6 415.1,76.6 								"/>
								<path id="Fill-7-2" class="st0" d="M422.1,72.3c-0.2,0.1-0.4,0.3-0.5,0.6c-0.3,0.5-0.3,1.1,0,1.6c0.1,0.2,0.3,0.4,0.5,0.6
									c0.4,0.3,1,0.3,1.4,0c0.2-0.1,0.4-0.3,0.5-0.6c0.1-0.3,0.2-0.5,0.2-0.8c0-0.3-0.1-0.5-0.2-0.8c-0.1-0.2-0.3-0.4-0.5-0.6
									c-0.2-0.1-0.5-0.2-0.7-0.2C422.6,72,422.3,72.1,422.1,72.3 M424.4,71c0.5,0.2,0.9,0.6,1.1,1.1c0.3,0.5,0.4,1,0.4,1.5
									c0,0.6-0.1,1.1-0.4,1.6c-0.3,0.4-0.7,0.8-1.1,1.1c-1,0.5-2.2,0.5-3.2,0c-0.5-0.2-0.9-0.6-1.1-1.1c-0.3-0.5-0.4-1-0.4-1.6
									c0-0.5,0.1-1.1,0.4-1.5c0.3-0.4,0.7-0.8,1.1-1.1c0.5-0.3,1-0.4,1.6-0.4C423.4,70.6,423.9,70.8,424.4,71"/>
								<path id="Fill-9-2" class="st0" d="M428.3,73.7h1c0.4,0,0.8-0.3,0.8-0.8c0,0,0,0,0,0c0-0.4-0.3-0.8-0.8-0.8c0,0,0,0,0,0h-1
									V73.7z M430,76.6l-0.8-1.6h-0.9v1.6h-1.7v-5.8h2.7c0.6,0,1.3,0.2,1.8,0.5c0.7,0.7,0.8,1.8,0.3,2.6c-0.1,0.3-0.4,0.6-0.7,0.7
									l1.2,1.9H430L430,76.6z"/>
								<polygon id="Fill-11-2" class="st0" points="432.6,76.6 434.3,76.6 434.3,70.7 432.6,70.7 								"/>
								<polygon id="Fill-13-2" class="st0" points="435.3,70.7 440.1,70.7 440.1,72.1 437,72.1 437,73 439.8,73 439.8,74.3 
									437,74.3 437,75.2 440.1,75.2 440.1,76.6 435.3,76.6 								"/>
								<path id="Fill-14-2" class="st0" d="M444.9,72.8c0.2-0.1,0.4-0.2,0.5-0.4c0.1-0.1,0.2-0.3,0.2-0.4c0-0.2-0.2-0.4-0.5-0.4
									c-0.1,0-0.2,0-0.2,0.1c-0.1,0.1-0.1,0.2-0.1,0.4C444.7,72.3,444.7,72.6,444.9,72.8C444.9,72.8,444.9,72.8,444.9,72.8
									L444.9,72.8z M445.5,75.3c-0.4-0.5-0.8-0.8-1-1.1c-0.2,0.1-0.4,0.3-0.4,0.6c0,0.4,0.3,0.7,0.6,0.7c0,0,0,0,0,0l0,0
									C445.1,75.5,445.3,75.4,445.5,75.3L445.5,75.3z M447.1,76.9l-0.8-0.7c-0.5,0.4-1,0.5-1.6,0.5c-0.4,0-0.7-0.1-1.1-0.2
									c-0.3-0.1-0.5-0.3-0.7-0.6c-0.4-0.5-0.4-1.3,0-1.8c0.2-0.3,0.5-0.5,0.8-0.6c-0.2-0.2-0.3-0.4-0.3-0.7c0-0.2-0.1-0.4-0.1-0.6
									c0-0.4,0.2-0.8,0.5-1.1c0.4-0.3,0.8-0.4,1.3-0.4c0.3,0,0.6,0.1,0.9,0.2c0.3,0.1,0.5,0.3,0.6,0.5c0.1,0.2,0.2,0.5,0.2,0.7
									c0,0.3-0.1,0.7-0.4,0.9c-0.3,0.3-0.6,0.5-1,0.7c0.3,0.3,0.5,0.6,0.7,0.8c0.1-0.3,0.2-0.6,0.3-0.9l1.2,0.7
									c-0.1,0.4-0.3,0.7-0.5,1c0.3,0.2,0.6,0.5,0.8,0.8L447.1,76.9z"/>
								<path id="Fill-15-2" class="st0" d="M453.4,73.5c0.2-0.2,0.2-0.4,0.2-0.6c0-0.4-0.2-0.7-0.6-0.8h-1v1.6h0.8
									C453.1,73.7,453.3,73.6,453.4,73.5 M454.7,71.3c0.4,0.4,0.6,0.9,0.6,1.5c0,0.6-0.2,1.2-0.6,1.6c-0.5,0.4-1.1,0.6-1.7,0.6
									h-0.9v1.6h-1.7v-5.8h2.6C453.6,70.7,454.3,70.8,454.7,71.3"/>
								<path id="Fill-16-2" class="st0" d="M458.1,72.3c-0.2,0.1-0.4,0.3-0.5,0.6c-0.3,0.5-0.3,1.1,0,1.6c0.1,0.2,0.3,0.4,0.5,0.6
									c0.4,0.3,1,0.3,1.4,0c0.2-0.1,0.4-0.3,0.5-0.6c0.1-0.3,0.2-0.5,0.2-0.8c0-0.3-0.1-0.5-0.2-0.8c-0.1-0.2-0.3-0.4-0.5-0.6
									c-0.2-0.1-0.5-0.2-0.7-0.2C458.6,72.1,458.3,72.1,458.1,72.3 M460.4,71c0.5,0.2,0.9,0.6,1.1,1.1c0.3,0.5,0.4,1,0.4,1.5
									c0,0.6-0.1,1.1-0.4,1.6c-0.3,0.4-0.7,0.8-1.1,1.1c-1,0.5-2.2,0.5-3.2,0c-0.5-0.2-0.9-0.6-1.1-1.1c-0.3-0.5-0.4-1-0.4-1.6
									c0-0.5,0.1-1.1,0.4-1.5c0.3-0.4,0.7-0.8,1.1-1.1c0.5-0.3,1-0.4,1.6-0.4C459.4,70.6,459.9,70.7,460.4,71"/>
								<path id="Fill-17-2" class="st0" d="M464.3,73.7h1c0.4,0,0.8-0.3,0.8-0.8c0,0,0,0,0,0c0-0.4-0.3-0.8-0.8-0.8c0,0,0,0,0,0h-1
									V73.7z M466,76.6l-0.8-1.6h-0.9v1.6h-1.7v-5.8h2.7c0.6,0,1.3,0.2,1.8,0.5c0.7,0.7,0.8,1.8,0.3,2.6c-0.1,0.3-0.4,0.6-0.7,0.7
									l1.2,1.9H466L466,76.6z"/>
								<polygon id="Fill-18-2" class="st0" points="468.2,70.7 473.3,70.7 473.3,72.1 471.6,72.1 471.6,76.6 469.9,76.6 
									469.9,72.1 468.2,72.1 								"/>
								<polygon id="Fill-19-2" class="st0" points="473.9,76.6 475.6,76.6 475.6,70.7 473.9,70.7 								"/>
								<path id="Fill-20-2" class="st0" d="M478.7,72.3c-0.2,0.1-0.4,0.3-0.5,0.6c-0.3,0.5-0.3,1.1,0,1.6c0.1,0.2,0.3,0.4,0.5,0.6
									c0.4,0.3,1,0.3,1.4,0c0.2-0.1,0.4-0.3,0.5-0.6c0.3-0.5,0.3-1.1,0-1.6c-0.1-0.2-0.3-0.4-0.5-0.6c-0.2-0.1-0.5-0.2-0.7-0.2
									C479.2,72.1,478.9,72.1,478.7,72.3 M481,71c0.5,0.2,0.9,0.6,1.1,1.1c0.3,0.5,0.4,1,0.4,1.5c0,0.6-0.1,1.1-0.4,1.6
									c-0.3,0.4-0.7,0.8-1.1,1.1c-1,0.5-2.2,0.5-3.2,0c-0.5-0.2-0.9-0.6-1.1-1.1c-0.3-0.5-0.4-1-0.4-1.6c0-0.5,0.1-1.1,0.4-1.5
									c0.3-0.4,0.7-0.8,1.1-1.1c0.5-0.3,1-0.4,1.6-0.4C480,70.6,480.5,70.7,481,71"/>
								<polygon id="Fill-21-2" class="st0" points="487.2,70.7 488.8,70.7 488.8,76.6 487.3,76.6 484.8,73.3 484.8,76.6 
									483.2,76.6 483.2,70.7 484.7,70.7 487.2,74 								"/>
								<path id="Fill-22" class="st0" d="M420.8,82.3c-0.2-0.1-0.5-0.2-0.7-0.2c-0.2,0-0.5,0.1-0.7,0.2c-0.2,0.1-0.4,0.3-0.5,0.6
									c-0.2,0.2-0.3,0.4-0.3,0.7c0,0.3,0.1,0.6,0.2,0.8c0.1,0.2,0.3,0.4,0.5,0.6c0.2,0.1,0.5,0.2,0.7,0.2c0.2,0,0.5-0.1,0.7-0.2
									c0.3-0.1,0.5-0.3,0.7-0.5l1,1.1c-0.3,0.3-0.7,0.6-1.1,0.8c-0.4,0.2-0.8,0.3-1.3,0.3c-0.6,0-1.1-0.1-1.6-0.4
									c-0.5-0.3-0.8-0.6-1.1-1.1c-0.3-0.5-0.4-1-0.4-1.6c0-0.5,0.1-1.1,0.4-1.5c0.3-0.5,0.6-0.8,1.1-1.1c0.5-0.3,1-0.4,1.6-0.4
									c0.4,0,0.9,0.1,1.3,0.3c0.4,0.2,0.8,0.5,1.1,0.8l-1,1.2C421.3,82.6,421.1,82.4,420.8,82.3"/>
								<path id="Fill-23" class="st0" d="M425,82.3c-0.2,0.1-0.4,0.3-0.5,0.6c-0.3,0.5-0.3,1.1,0,1.6c0.1,0.2,0.3,0.4,0.5,0.6
									c0.4,0.3,1,0.3,1.4,0c0.2-0.1,0.4-0.3,0.5-0.6c0.1-0.3,0.2-0.5,0.2-0.8c0-0.3-0.1-0.5-0.2-0.8c-0.1-0.2-0.3-0.4-0.5-0.6
									c-0.2-0.1-0.5-0.2-0.7-0.2C425.5,82,425.2,82.1,425,82.3 M427.3,81c0.5,0.2,0.9,0.6,1.1,1.1c0.3,0.5,0.4,1,0.4,1.5
									c0,0.6-0.1,1.1-0.4,1.6c-0.3,0.4-0.7,0.8-1.1,1.1c-1,0.5-2.2,0.5-3.2,0c-0.5-0.2-0.9-0.6-1.1-1.1c-0.3-0.5-0.4-1-0.4-1.6
									c0-0.5,0.1-1.1,0.4-1.5c0.3-0.4,0.7-0.8,1.1-1.1C425.1,80.5,426.3,80.5,427.3,81"/>
								<polygon id="Fill-24" class="st0" points="433.5,80.7 435,80.7 435,86.5 433.6,86.5 431.1,83.3 431.1,86.5 429.5,86.5 
									429.5,80.7 431,80.7 433.5,84 								"/>
								<polygon id="Fill-25" class="st0" points="435.6,80.7 440.7,80.7 440.7,82.1 439,82.1 439,86.5 437.3,86.5 437.3,82.1 
									435.6,82.1 								"/>
								<path id="Fill-26" class="st0" d="M443,83.6h1c0.4,0,0.8-0.3,0.8-0.8c0,0,0,0,0,0c0-0.4-0.3-0.8-0.8-0.8c0,0,0,0,0,0h-1
									V83.6z M444.7,86.5l-0.8-1.6H443v1.6h-1.7v-5.8h2.7c0.6,0,1.3,0.2,1.8,0.5c0.7,0.7,0.8,1.8,0.3,2.6
									c-0.1,0.3-0.4,0.6-0.7,0.7l1.2,1.9h-1.9L444.7,86.5z"/>
								<path id="Fill-27" class="st0" d="M449.4,82.3c-0.2,0.1-0.4,0.3-0.5,0.6c-0.3,0.5-0.3,1.1,0,1.6c0.1,0.2,0.3,0.4,0.5,0.6
									c0.4,0.3,1,0.3,1.4,0c0.2-0.1,0.4-0.3,0.5-0.6c0.1-0.3,0.2-0.5,0.2-0.8c0-0.3-0.1-0.5-0.2-0.8c-0.1-0.2-0.3-0.4-0.5-0.6
									c-0.2-0.1-0.5-0.2-0.7-0.2C449.9,82,449.6,82.1,449.4,82.3 M451.7,81c0.5,0.2,0.9,0.6,1.1,1.1c0.3,0.5,0.4,1,0.4,1.5
									c0,0.6-0.1,1.1-0.4,1.6c-0.3,0.4-0.7,0.8-1.1,1.1c-1,0.5-2.2,0.5-3.2,0c-0.5-0.2-0.9-0.6-1.1-1.1c-0.3-0.5-0.4-1-0.4-1.6
									c0-0.5,0.1-1.1,0.4-1.5c0.3-0.4,0.7-0.8,1.1-1.1C449.5,80.5,450.7,80.5,451.7,81"/>
								<polygon id="Fill-28" class="st0" points="453.9,80.7 455.7,80.7 455.7,85.1 458.1,85.1 458.1,86.5 453.9,86.5 								"/>
								<polygon id="Fill-29" class="st0" points="458.7,80.7 460.4,80.7 460.4,85.1 462.9,85.1 462.9,86.5 458.7,86.5 								"/>
								<polygon id="Fill-30" class="st0" points="463.5,80.7 468.2,80.7 468.2,82 465.2,82 465.2,83 467.9,83 467.9,84.3 
									465.2,84.3 465.2,85.2 468.3,85.2 468.3,86.5 463.5,86.5 								"/>
								<path id="Fill-31" class="st0" d="M472.7,84.8c0.2-0.3,0.4-0.7,0.4-1.1c0-0.4-0.1-0.8-0.4-1.1c-0.3-0.3-0.6-0.4-1-0.4h-0.8
									v3.1h0.9C472.1,85.2,472.4,85,472.7,84.8 M473.3,81.1c0.5,0.2,0.8,0.6,1.1,1c0.5,0.9,0.5,2.1,0,3c-0.3,0.4-0.6,0.8-1.1,1
									c-0.5,0.3-1.1,0.4-1.7,0.4h-2.5v-5.8h2.6C472.3,80.7,472.8,80.8,473.3,81.1"/>
								<path id="Fill-32" class="st0" d="M437,30.1c-0.7,0.1-1.3-0.4-1.3-1c0,0,0,0,0,0c0-0.1,0-0.1,0-0.2v-1.4h-4.9
									c-0.7,0.1-1.2-0.4-1.3-1.1c0,0,0,0,0,0c0-0.1,0-0.1,0-0.2c0-0.7,0.4-1.2,1.1-1.3h5.1v-1.3c0-0.7,0.6-1.3,1.3-1.3
									c0.7,0,1.3,0.6,1.3,1.3c0,0,0,0,0,0V25h22.6c0.7,0,1.2,0.5,1.3,1.1v0.2c0,0.7-0.7,1.3-1.4,1.3c0,0,0,0,0,0h-22.5V29
									C438.2,29.6,437.7,30.1,437,30.1"/>
								<path id="Fill-33" class="st0" d="M444.8,39.6c-0.7,0.1-1.2-0.4-1.3-1.1c0,0,0,0,0,0c0-0.1,0-0.1,0-0.2v-1.4h-12.7
									c-0.7,0-1.3-0.6-1.3-1.3c0-0.7,0.6-1.3,1.3-1.3c0,0,0,0,0,0h12.8v-1.4c0-0.7,0.6-1.3,1.3-1.3c0.7,0,1.3,0.6,1.3,1.3
									c0,0,0,0,0,0l0,0v1.4H461c0.7,0,1.2,0.5,1.3,1.1v0.2c0,0.7-0.7,1.3-1.4,1.3c0,0,0,0,0,0h-14.8v1.4
									C446.2,39,445.6,39.6,444.8,39.6C444.9,39.6,444.9,39.6,444.8,39.6C444.9,39.6,444.9,39.6,444.8,39.6"/>
								<path id="Fill-34" class="st0" d="M454.6,49.2c-0.7,0.1-1.2-0.4-1.3-1.1c0,0,0,0,0,0c0-0.1,0-0.1,0-0.2v-1.4h-22.5
									c-0.7,0-1.3-0.6-1.3-1.3c0-0.7,0.6-1.3,1.3-1.3c0,0,0,0,0,0h22.5v-1.4c0-0.7,0.6-1.3,1.3-1.3c0.7,0,1.3,0.6,1.3,1.3
									c0,0,0,0,0,0l0,0v1.4h5.1c0.7,0,1.2,0.5,1.3,1.1v0.2c0,0.7-0.7,1.3-1.4,1.3c0,0,0,0,0,0H456v1.4
									C455.8,48.5,455.3,49.2,454.6,49.2"/>
								<path id="Fill-35" class="st0" d="M441.6,58.8c-0.7,0.1-1.2-0.4-1.3-1.1c0,0,0,0,0,0c0-0.1,0-0.1,0-0.2v-1.4h-9.5
									c-0.7,0-1.3-0.6-1.3-1.3c0-0.7,0.6-1.3,1.3-1.3c0,0,0,0,0,0h9.5v-1.2c0-0.7,0.6-1.3,1.3-1.3c0.7,0,1.3,0.6,1.3,1.3
									c0,0,0,0,0,0v1.4h18c0.7,0,1.2,0.5,1.3,1.1V55c0,0.7-0.7,1.3-1.4,1.3c0,0,0,0,0,0h-17.9v1.4
									C442.9,58.3,442.3,58.8,441.6,58.8L441.6,58.8"/>
							</g>
							<g id="Group-51">
								<polygon id="Fill-1-6" class="st0" points="564.2,70.3 565.9,70.3 565.9,74.7 568.4,74.7 568.4,76.2 564.2,76.2 								"/>
								<path id="Fill-2" class="st0" d="M571.1,71.9c-0.2,0.1-0.4,0.3-0.5,0.6c-0.3,0.5-0.3,1.1,0,1.6c0.1,0.2,0.3,0.4,0.5,0.6
									c0.4,0.3,1,0.3,1.4,0c0.2-0.1,0.4-0.3,0.5-0.6c0.1-0.3,0.2-0.5,0.2-0.8c0-0.3-0.1-0.5-0.2-0.8c-0.1-0.2-0.3-0.4-0.5-0.6
									c-0.2-0.1-0.5-0.2-0.7-0.2C571.6,71.7,571.3,71.7,571.1,71.9 M573.4,70.6c0.5,0.2,0.9,0.6,1.1,1.1c0.3,0.5,0.4,1,0.4,1.5
									c0,0.6-0.1,1.1-0.4,1.6c-0.3,0.4-0.7,0.8-1.1,1.1c-1,0.5-2.2,0.5-3.2,0c-0.5-0.2-0.9-0.6-1.1-1.1c-0.3-0.5-0.4-1-0.4-1.6
									c0-0.5,0.1-1.1,0.4-1.5c0.3-0.4,0.7-0.8,1.1-1.1C571.2,70.1,572.4,70.1,573.4,70.6"/>
								<polygon id="Fill-4" class="st0" points="582.7,70.3 584.5,70.3 582.5,76.2 580.7,76.2 579.8,72.4 578.8,76.2 577,76.2 
									575,70.3 576.9,70.3 577.9,74.4 579,70.3 580.6,70.3 581.7,74.4 								"/>
								<path id="Fill-6" class="st0" d="M543,81.7c-0.3-0.1-0.6-0.2-0.9-0.2c-0.1,0-0.3,0-0.4,0.1c-0.1,0.1-0.1,0.1-0.1,0.3
									c0,0.2,0.1,0.3,0.2,0.4c0.3,0.1,0.5,0.2,0.8,0.3c0.4,0.1,0.7,0.2,1,0.4c0.3,0.1,0.5,0.3,0.7,0.5c0.2,0.3,0.3,0.6,0.3,1
									c0,0.4-0.1,0.7-0.3,1c-0.2,0.2-0.6,0.4-0.9,0.5c-0.4,0.1-0.8,0.2-1.2,0.2c-0.5,0-1-0.1-1.5-0.3c-0.5-0.2-0.9-0.4-1.3-0.7
									L540,84c0.3,0.3,0.7,0.5,1.1,0.6c0.3,0.2,0.7,0.3,1.1,0.3c0.2,0,0.3,0,0.4-0.1s0.2-0.2,0.2-0.3c0-0.2-0.1-0.3-0.3-0.4
									c-0.2-0.1-0.5-0.2-0.7-0.3c-0.4-0.1-0.7-0.2-1-0.3c-0.3-0.1-0.5-0.3-0.7-0.5c-0.2-0.3-0.3-0.6-0.3-1c0-0.4,0.1-0.7,0.3-1
									c0.2-0.3,0.5-0.5,0.8-0.6c0.4-0.2,0.9-0.2,1.3-0.2c0.4,0,0.9,0.1,1.3,0.2c0.4,0.1,0.8,0.3,1.1,0.5l-0.6,1.3
									C543.7,82,543.4,81.8,543,81.7"/>
								<path id="Fill-9-3" class="st0" d="M547.3,83.9h1.4L548,82L547.3,83.9z M549.5,86.1l-0.3-0.9h-2.4l-0.4,0.9h-1.7l2.5-5.8
									h1.8l2.4,5.8H549.5z"/>
								<polygon id="Fill-11-3" class="st0" points="550.7,80.3 555.8,80.3 555.8,81.7 554.1,81.7 554.1,86.1 552.4,86.1 
									552.4,81.7 550.7,81.7 								"/>
								<path id="Fill-13-3" class="st0" d="M558.3,84.5c0.4,0.4,1,0.4,1.4,0c0.2-0.2,0.3-0.5,0.3-0.8v-3.4h1.7v3.4
									c0,0.5-0.1,0.9-0.3,1.3c-0.2,0.4-0.5,0.7-0.9,0.9c-0.9,0.4-1.9,0.4-2.8,0c-0.4-0.2-0.7-0.5-1-0.9c-0.2-0.4-0.3-0.8-0.3-1.3
									v-3.4h1.7v3.4C558,83.9,558.1,84.3,558.3,84.5"/>
								<path id="Fill-15-3" class="st0" d="M564.3,83.2h1c0.4,0,0.8-0.3,0.8-0.8c0,0,0,0,0,0c0-0.4-0.3-0.8-0.8-0.8c0,0,0,0,0,0h-1
									V83.2z M565.9,86.1l-0.8-1.6h-0.9v1.6h-1.7v-5.8h2.7c0.6,0,1.3,0.2,1.8,0.5c0.7,0.7,0.8,1.8,0.3,2.6
									c-0.1,0.3-0.4,0.6-0.7,0.7l1.2,1.9L565.9,86.1L565.9,86.1z"/>
								<path id="Fill-17-3" class="st0" d="M570.6,83.9h1.4l-0.7-1.9L570.6,83.9z M572.8,86.1l-0.3-0.9h-2.4l-0.3,0.9H568l2.5-5.8
									h1.8l2.4,5.8H572.8z"/>
								<polygon id="Fill-19-3" class="st0" points="574,80.3 579.1,80.3 579.1,81.7 577.4,81.7 577.4,86.1 575.7,86.1 575.7,81.7 
									574,81.7 								"/>
								<polygon id="Fill-21-3" class="st0" points="579.7,80.3 584.4,80.3 584.4,81.6 581.4,81.6 581.4,82.5 584.1,82.5 
									584.1,83.9 581.4,83.9 581.4,84.8 584.5,84.8 584.5,86.1 579.7,86.1 								"/>
								<path id="Fill-23-2" class="st0" d="M588.9,84.3c0.2-0.3,0.4-0.7,0.4-1.1c0-0.4-0.1-0.8-0.4-1.1c-0.3-0.3-0.6-0.4-1-0.4
									h-0.8v3.1h0.9C588.4,84.8,588.7,84.6,588.9,84.3 M589.5,80.7c0.5,0.2,0.8,0.6,1.1,1c0.5,0.9,0.5,2.1,0,3
									c-0.3,0.4-0.6,0.8-1.1,1c-0.5,0.3-1.1,0.4-1.7,0.4h-2.5v-5.8h2.5C588.4,80.3,589,80.4,589.5,80.7"/>
								<polygon id="Fill-25-2" class="st0" points="593.4,80.3 597.9,80.3 597.9,81.6 595.1,81.6 595.1,82.8 597.7,82.8 
									597.7,84.1 595.1,84.1 595.1,86.1 593.4,86.1 								"/>
								<path id="Fill-27-2" class="st0" d="M600.3,83.9h1.4L601,82L600.3,83.9z M602.5,86.1l-0.3-0.9h-2.4l-0.4,0.9h-1.8l2.5-5.8
									h1.8l2.4,5.8H602.5z"/>
								<polygon id="Fill-29-2" class="st0" points="603.7,80.3 608.8,80.3 608.8,81.7 607.1,81.7 607.1,86.1 605.4,86.1 
									605.4,81.7 603.7,81.7 								"/>
								<path id="Fill-34-2" class="st0" d="M566.4,22.7c2,2.3,9,11,9,16.3c0,4.4-1.6,9.7-9,9.7s-9-5.3-9-9.7
									C557.4,33.7,564.4,25.1,566.4,22.7 M566.4,50.2c6.7,0,10.4-4,10.4-11.1c0-6.7-9.5-17.4-9.9-17.9c-0.2-0.3-0.7-0.3-1-0.1
									c0,0,0,0,0,0v0l0,0c-0.4,0.5-9.9,11.1-9.9,17.9C556,46.3,559.7,50.2,566.4,50.2"/>
								<path id="Fill-36" class="st0" d="M585.9,35.5c-1.3,1.5-4.7,5.8-4.7,8.8c0,3.8,1.6,5.7,4.7,5.7s4.7-1.9,4.7-5.7
									C590.6,41.3,587.2,37,585.9,35.5 M585.9,51.8c-4.1,0-6.4-2.7-6.4-7.5c0-4.4,5.6-10.4,5.8-10.7c0.2-0.2,0.4-0.3,0.6-0.3
									c0.2,0,0.5,0.1,0.6,0.3c0.2,0.3,5.8,6.3,5.8,10.7C592.4,49.1,590,51.8,585.9,51.8"/>
								<path id="Fill-38" class="st0" d="M585.9,35.3c1.3,1.6,4.9,6,4.9,9.1c0,3.9-1.6,5.9-4.9,5.9s-4.9-2-4.9-5.9
									C581,41.2,584.6,36.8,585.9,35.3 M585.9,51.6c4,0,6.3-2.7,6.3-7.3c0-4.3-5.5-10.3-5.8-10.6c-0.2-0.3-0.7-0.3-1-0.1
									c0,0,0,0,0,0v0l0,0c-0.2,0.3-5.8,6.2-5.8,10.6C579.6,48.9,581.9,51.6,585.9,51.6"/>
								<path id="Fill-40" class="st0" d="M576.3,50.9c-1.6,2-3.3,4.7-3.3,6.3c0,2.7,1.1,4,3.3,4s3.3-1.3,3.3-4
									C579.6,55.6,577.9,52.9,576.3,50.9 M576.3,62.9c-3.2,0-5.1-2.1-5.1-5.8c0-3.2,4.2-8,4.4-8.2c0.2-0.2,0.4-0.3,0.7-0.3
									c0.3,0,0.5,0.1,0.7,0.3c0.2,0.2,4.4,5,4.4,8.2C581.3,60.8,579.5,62.9,576.3,62.9"/>
								<path id="Fill-42" class="st0" d="M576.3,61.3c-2.3,0-3.5-1.4-3.5-4.2c0-1.9,2.2-5,3.5-6.6c1.3,1.6,3.5,4.7,3.5,6.6
									C579.7,59.9,578.6,61.3,576.3,61.3 M575.7,49.1c-0.2,0.2-4.4,5-4.4,8.1c0,3.5,1.8,5.6,4.9,5.6s4.9-2,4.9-5.6
									c0-3.1-4.2-7.9-4.3-8.1C576.5,48.8,576,48.8,575.7,49.1L575.7,49.1"/>
								<path id="Fill-44" class="st0" d="M565,47.4L565,47.4c0.4,0.1,0.7-0.2,0.8-0.6c0,0,0,0,0,0c0,0,0-0.1,0-0.1
									c0-0.4-0.2-0.7-0.6-0.7c-1.4-0.1-2.8-0.8-3.7-1.9c-1.9-2.4-1.2-6.3-1.2-6.3c0.1-0.4-0.2-0.7-0.6-0.8c-0.4,0-0.7,0.2-0.8,0.6
									c0,0.2-0.7,4.5,1.5,7.4C561.5,46.5,563.2,47.3,565,47.4"/>
								<path id="Fill-46" class="st0" d="M585.3,48.8c1.3,0,2.5-0.5,3.4-1.5c0.8-1,1.1-2.3,0.8-3.5c0-0.4-0.4-0.7-0.8-0.7
									c-0.4,0-0.7,0.4-0.7,0.7c0,0,0,0.1,0,0.1c0.2,0.8,0.1,1.7-0.4,2.4c-0.6,0.6-1.4,1-2.3,1c-0.4,0-0.7,0.3-0.7,0.7c0,0,0,0,0,0
									l0,0C584.6,48.5,584.8,48.8,585.3,48.8"/>
								<path id="Fill-48" class="st0" d="M575.8,58.6c-0.4-0.1-0.6-0.6-0.4-0.9c0,0,0,0,0,0v-0.1c0-0.1,0-0.1,0.1-0.1
									c0.2-0.3,0-0.7-0.3-0.9c-0.3-0.2-0.7,0-0.9,0.3l0,0c-0.6,1-0.2,2.4,0.8,3c0,0,0,0,0,0h0.1c0.1,0,0.1,0,0.1,0.1
									c0.3,0.2,0.7,0.1,0.9-0.3c0,0,0,0,0,0l0,0C576.3,59.3,576.1,58.9,575.8,58.6L575.8,58.6z"/>
							</g>
							<g id="Group-38">
								<polygon id="Fill-1-7" class="st0" points="672.8,69.8 674.6,69.8 674.6,74.2 677,74.2 677,75.7 672.8,75.7 								"/>
								<path id="Fill-2-2" class="st0" d="M679.8,71.5c-0.2,0.1-0.4,0.3-0.5,0.6c-0.2,0.2-0.3,0.4-0.3,0.7c0,0.3,0.1,0.6,0.2,0.8
									c0.1,0.2,0.3,0.4,0.5,0.6c0.4,0.3,1,0.3,1.4,0c0.2-0.1,0.4-0.3,0.5-0.6c0.1-0.3,0.2-0.5,0.2-0.8c0-0.3-0.1-0.5-0.2-0.8
									c-0.1-0.2-0.3-0.4-0.5-0.6c-0.2-0.1-0.5-0.2-0.7-0.2C680.2,71.2,680,71.3,679.8,71.5 M682.1,70.2c0.5,0.2,0.9,0.6,1.1,1.1
									c0.3,0.5,0.4,1,0.4,1.5c0,0.6-0.1,1.1-0.4,1.6c-0.3,0.4-0.7,0.8-1.1,1.1c-1,0.5-2.2,0.5-3.2,0c-0.5-0.2-0.9-0.6-1.1-1.1
									c-0.3-0.5-0.4-1-0.4-1.6c0-0.5,0.1-1.1,0.4-1.5c0.3-0.4,0.7-0.8,1.1-1.1C679.9,69.6,681.1,69.6,682.1,70.2"/>
								<polygon id="Fill-4-2" class="st0" points="691.4,69.8 693.1,69.8 691.2,75.7 689.4,75.7 688.4,71.9 687.4,75.7 685.6,75.7 
									683.7,69.8 685.5,69.8 686.6,73.9 687.6,69.8 689.3,69.8 690.3,73.9 								"/>
								<path id="Fill-6-2" class="st0" d="M671.3,81.2c-0.3-0.1-0.6-0.2-0.9-0.2c-0.1,0-0.3,0-0.4,0.1c-0.1,0.1-0.1,0.1-0.1,0.3
									c0,0.2,0.1,0.3,0.2,0.4c0.3,0.1,0.5,0.2,0.8,0.3c0.4,0.1,0.7,0.2,1,0.4c0.2,0.1,0.5,0.3,0.7,0.5c0.2,0.3,0.3,0.6,0.3,1
									c0,0.4-0.1,0.7-0.3,1c-0.2,0.3-0.5,0.5-0.9,0.6c-0.4,0.1-0.8,0.2-1.2,0.2c-0.5,0-1-0.1-1.5-0.3c-0.5-0.2-0.9-0.4-1.3-0.7
									l0.6-1.3l1.2,0.6c0.3,0.2,0.7,0.3,1.1,0.3c0.2,0,0.3,0,0.4-0.1s0.2-0.2,0.2-0.3c0-0.2-0.1-0.3-0.3-0.4
									c-0.3-0.1-0.5-0.2-0.8-0.3c-0.4-0.1-0.7-0.2-1-0.3c-0.3-0.1-0.5-0.3-0.7-0.5c-0.2-0.3-0.3-0.6-0.3-1c0-0.4,0.1-0.7,0.3-1
									c0.2-0.3,0.5-0.5,0.8-0.6c0.4-0.2,0.9-0.2,1.3-0.2c0.4,0,0.9,0.1,1.3,0.2c0.4,0.1,0.8,0.3,1.1,0.5l-0.6,1.3
									C672,81.5,671.6,81.4,671.3,81.2"/>
								<path id="Fill-8" class="st0" d="M675.4,84.1c0.4,0.4,1,0.4,1.4,0c0.2-0.2,0.3-0.5,0.3-0.8v-3.4h1.7v3.4
									c0,0.5-0.1,0.9-0.3,1.3c-0.2,0.4-0.5,0.7-0.9,0.9c-0.9,0.4-1.9,0.4-2.8,0c-0.4-0.2-0.7-0.5-1-0.9c-0.2-0.4-0.3-0.8-0.3-1.3
									v-3.4h1.8v3.4C675.2,83.5,675.2,83.8,675.4,84.1"/>
								<path id="Fill-10" class="st0" d="M683.5,82.7h1.5v2.4c-0.4,0.2-0.8,0.4-1.2,0.5c-0.4,0.2-0.9,0.2-1.3,0.2
									c-0.6,0-1.1-0.1-1.6-0.4c-0.5-0.3-0.8-0.6-1.1-1.1c-0.3-0.5-0.4-1-0.4-1.6c0-0.5,0.1-1.1,0.4-1.5c0.3-0.5,0.7-0.8,1.2-1.1
									c0.5-0.3,1.1-0.4,1.7-0.4c0.4,0,0.9,0.1,1.3,0.2c0.4,0.2,0.8,0.4,1.1,0.7l-1,1.2c-0.2-0.2-0.5-0.4-0.7-0.5
									c-0.5-0.3-1.1-0.3-1.6,0c-0.2,0.1-0.4,0.3-0.5,0.6c-0.1,0.3-0.2,0.5-0.2,0.8c0,0.3,0.1,0.6,0.2,0.8c0.1,0.2,0.3,0.4,0.5,0.6
									c0.2,0.1,0.5,0.2,0.8,0.2c0.3,0,0.6-0.1,0.9-0.2L683.5,82.7z"/>
								<path id="Fill-12" class="st0" d="M687.9,83.5h1.4l-0.7-1.9L687.9,83.5z M690.1,85.7l-0.3-0.9h-2.4l-0.3,0.9h-1.8l2.5-5.8
									h1.8l2.4,5.8H690.1z"/>
								<path id="Fill-14-3" class="st0" d="M694.1,82.8h1c0.4,0.1,0.7-0.2,0.8-0.6c0,0,0,0,0,0c0-0.1,0-0.1,0-0.2
									c0-0.2-0.1-0.4-0.2-0.6c-0.2-0.1-0.4-0.2-0.6-0.2h-1V82.8z M695.8,85.7l-0.8-1.6h-0.9v1.6h-1.7v-5.8h2.7
									c0.6,0,1.3,0.2,1.8,0.5c0.7,0.7,0.8,1.8,0.3,2.6c-0.1,0.3-0.4,0.6-0.7,0.7l1.2,1.9h-1.9L695.8,85.7z"/>
								<path id="Fill-16-3" class="st0" d="M660.7,41.3c-0.4,0-0.7,0.3-0.7,0.7c0,0,0,0,0,0l0,0l0,0v11.7c0,0.2,0.1,0.5,0.3,0.6
									l11,7.3c0.2,0.2,0.6,0.2,0.8,0l11-6.6c0.2-0.1,0.4-0.3,0.4-0.6V42c0-0.4-0.3-0.7-0.7-0.7s-0.7,0.3-0.7,0.7l0,0v12.1
									l-10.2,6.1l-10.4-6.8V42C661.5,41.7,661.2,41.3,660.7,41.3C660.8,41.3,660.8,41.3,660.7,41.3L660.7,41.3z"/>
								<path id="Fill-18-3" class="st0" d="M671.7,48c-0.4,0-0.7,0.3-0.7,0.7c0,0,0,0,0,0V61c0,0.4,0.3,0.7,0.7,0.7
									s0.7-0.3,0.7-0.7l0,0V48.7C672.5,48.2,672.1,48,671.7,48L671.7,48"/>
								<path id="Fill-20-3" class="st0" d="M682.7,41.3c-0.4,0-0.7,0.3-0.7,0.7c0,0,0,0,0,0l0,0l0,0v12.5c0,0.3,0.1,0.5,0.4,0.6
									l11,6.6c0.3,0.1,0.5,0.1,0.8,0l11-6.6c0.2-0.1,0.4-0.3,0.4-0.6V42c0-0.4-0.3-0.7-0.7-0.7s-0.7,0.3-0.7,0.7l0,0v12.1
									l-10.3,6.2l-10.3-6.2V42C683.5,41.7,683.1,41.4,682.7,41.3z"/>
								<path id="Fill-23-3" class="st0" d="M693.7,48c-0.4,0-0.7,0.3-0.7,0.7c0,0,0,0,0,0V61c0,0.4,0.3,0.7,0.7,0.7
									s0.7-0.3,0.7-0.7l0,0V48.7C694.5,48.2,694.1,48,693.7,48L693.7,48"/>
								<path id="Fill-25-3" class="st0" d="M671.7,30.4c-0.4,0-0.7,0.3-0.7,0.7c0,0,0,0,0,0v11.7c0,0.2,0.1,0.5,0.3,0.6l11,7.3
									c0.2,0.2,0.6,0.2,0.8,0l11-6.6c0.2-0.1,0.4-0.3,0.4-0.6V31c0-0.4-0.3-0.7-0.7-0.7s-0.7,0.3-0.7,0.7l0,0l0,0v12.1l-10.2,6.1
									l-10.3-6.9V31C672.5,30.7,672.1,30.4,671.7,30.4L671.7,30.4z"/>
								<path id="Fill-27-3" class="st0" d="M682.7,25.4l9.6,5.7l-9.6,5.7l-9.6-5.7L682.7,25.4z M682.7,23.8c-0.1,0-0.2,0-0.3,0.1
									l-11,6.6c-0.3,0.2-0.5,0.6-0.3,1c0.1,0.1,0.1,0.2,0.3,0.2l11,6.6c0.3,0.1,0.5,0.1,0.8,0l11-6.6c0.3-0.2,0.5-0.6,0.3-1
									c-0.1-0.1-0.1-0.2-0.3-0.2l-11-6.6C683,23.8,682.9,23.7,682.7,23.8z"/>
								<path id="Fill-30-2" class="st0" d="M682.7,37c-0.4,0-0.7,0.3-0.7,0.7c0,0,0,0,0,0V50c0,0.4,0.3,0.7,0.7,0.7
									s0.7-0.3,0.7-0.7l0,0V37.7C683.5,37.2,683.1,37,682.7,37z"/>
								<path id="Fill-32-2" class="st0" d="M671.8,34.8c-0.1,0-0.3,0-0.4,0.1l-11,6.6c-0.3,0.2-0.5,0.6-0.3,1
									c0.1,0.1,0.1,0.2,0.3,0.3l11,6.6c0.2,0.1,0.5,0.1,0.7,0l4.4-2.2c0.4-0.2,0.6-0.6,0.4-1c-0.2-0.4-0.6-0.6-1-0.4h-0.1l-4,2
									l-9.6-5.7l10-6c0.3-0.2,0.5-0.6,0.3-0.9l0-0.1C672.3,34.9,672.1,34.8,671.8,34.8z"/>
								<path id="Fill-34-3" class="st0" d="M693.7,34.8c-0.4,0-0.7,0.4-0.7,0.8c0,0.3,0.2,0.5,0.4,0.6l10,6l-9.6,5.7l-3.3-2
									c-0.3-0.2-0.8-0.1-1,0.2c-0.2,0.3-0.1,0.8,0.2,1h0.1l3.7,2.2c0.3,0.1,0.5,0.1,0.8,0l11-6.6c0.3-0.2,0.5-0.6,0.3-1
									c-0.1-0.1-0.1-0.2-0.3-0.3l-11-6.6C694.1,34.7,693.9,34.7,693.7,34.8z"/>
							</g>
							<g id="Group-25">
								<polygon id="Fill-1-8" class="st0" points="756.6,70.7 756.6,76.5 760.8,76.5 760.8,75 758.3,75 758.3,70.7 								"/>
								<path id="Fill-2-3" class="st0" d="M763.5,72.2c-0.2,0.1-0.4,0.3-0.5,0.6c-0.3,0.5-0.3,1.1,0,1.6c0.1,0.2,0.3,0.4,0.5,0.6
									c0.4,0.3,1,0.3,1.4,0c0.2-0.1,0.4-0.3,0.5-0.6c0.3-0.5,0.3-1.1,0-1.6c-0.1-0.2-0.3-0.4-0.5-0.6c-0.2-0.1-0.5-0.2-0.7-0.2
									C763.9,72,763.7,72.1,763.5,72.2 M765.8,70.9c0.5,0.2,0.9,0.6,1.1,1.1c0.3,0.5,0.4,1,0.4,1.5c0,0.6-0.1,1.1-0.4,1.6
									c-0.3,0.4-0.7,0.8-1.1,1.1c-1,0.5-2.2,0.5-3.2,0c-0.5-0.2-0.9-0.6-1.1-1.1c-0.3-0.5-0.4-1-0.4-1.6c0-0.5,0.1-1.1,0.4-1.5
									c0.3-0.4,0.7-0.8,1.1-1.1c0.5-0.3,1-0.4,1.6-0.4C764.7,70.6,765.3,70.7,765.8,70.9"/>
								<polygon id="Fill-4-3" class="st0" points="775.1,70.7 776.9,70.7 774.9,76.5 773.1,76.5 772.2,72.8 771.1,76.5 769.4,76.5 
									767.4,70.7 769.3,70.7 770.3,74.7 771.4,70.7 773,70.7 774.1,74.7 								"/>
								<path id="Fill-6-3" class="st0" d="M759.2,82c-0.3-0.1-0.6-0.2-0.9-0.2c-0.1,0-0.3,0-0.4,0.1c-0.1,0.1-0.1,0.1-0.1,0.3
									c0,0.2,0.1,0.3,0.2,0.4c0.3,0.1,0.5,0.2,0.8,0.3c0.4,0.1,0.7,0.2,1,0.4c0.3,0.1,0.5,0.3,0.7,0.5c0.2,0.3,0.3,0.6,0.3,1
									c0,0.4-0.1,0.7-0.3,1c-0.2,0.3-0.5,0.5-0.9,0.6c-0.4,0.1-0.8,0.2-1.2,0.2c-0.5,0-1-0.1-1.5-0.3c-0.5-0.2-0.9-0.4-1.3-0.7
									l0.6-1.3c0.3,0.3,0.7,0.5,1.1,0.6c0.3,0.2,0.7,0.3,1.1,0.3c0.2,0,0.3,0,0.4-0.1s0.2-0.2,0.2-0.3c0-0.2-0.1-0.3-0.3-0.4
									c-0.3-0.1-0.5-0.2-0.8-0.3c-0.4-0.1-0.7-0.2-1-0.3c-0.3-0.1-0.5-0.3-0.7-0.5c-0.2-0.3-0.3-0.6-0.3-0.9c0-0.4,0.1-0.7,0.3-1
									c0.2-0.3,0.5-0.5,0.8-0.6c0.4-0.2,0.9-0.2,1.3-0.2c0.4,0,0.9,0.1,1.3,0.2c0.4,0.1,0.8,0.3,1.1,0.5l-0.6,1.3
									C759.9,82.3,759.5,82.2,759.2,82"/>
								<path id="Fill-9-4" class="st0" d="M763.5,84.3h1.4l-0.7-1.9L763.5,84.3z M765.7,86.5l-0.3-0.9H763l-0.4,0.9h-1.7l2.5-5.8
									h1.8l2.4,5.8H765.7z"/>
								<polygon id="Fill-11-4" class="st0" points="768,80.6 769.7,80.6 769.7,85 772.1,85 772.1,86.5 768,86.5 								"/>
								<polygon id="Fill-13-4" class="st0" points="772.3,80.6 777.4,80.6 777.4,82 775.7,82 775.7,86.5 774,86.5 774,82 772.3,82 
																	"/>
								<path id="Fill-15-4" class="st0" d="M766.5,61.5c-4.2,0-8.4-1-8.7-3l0,0l1.2-15.4V43c0-1.4,3.4-2.6,7.5-2.6
									c1.8,0,3.7,0.2,5.4,0.8c0.8,0.3,2.1,0.9,2.1,1.8v0.1l1.3,15.3C775.1,60.6,770.8,61.6,766.5,61.5L766.5,61.5z M759.3,35
									c0-0.4,0.1-0.7,0.3-1v0.1c0,2.4,2.7,4,6.8,4s6.8-1.6,6.8-4V34c0.2,0.3,0.3,0.6,0.3,1l0.4,5.3c-1.7-1.2-4.6-1.7-7.6-1.7
									c-2.6-0.1-5.2,0.4-7.5,1.6L759.3,35z M771.7,31.5v2.6c0,1.6-2.6,2.3-5.2,2.3s-5.2-0.8-5.2-2.3v-2.6
									C764.6,32.9,768.4,32.9,771.7,31.5L771.7,31.5z M759.4,26.7c0-2.8,3.6-4.2,7.1-4.2s7.1,1.4,7.1,4.2c0,0.9-0.4,1.8-1.1,2.4
									c-0.4,0.4-0.9,0.7-1.4,0.9c-0.3,0.2-0.7,0.3-1.1,0.4c-2.3,0.7-4.7,0.7-7,0c-0.4-0.1-0.8-0.2-1.2-0.4c-0.5-0.3-1-0.6-1.4-0.9
									C759.7,28.5,759.4,27.6,759.4,26.7L759.4,26.7z M775.3,35c0-1.3-0.8-2.5-1.9-3.2v-0.6c0-0.2,0-0.4-0.1-0.6
									c1.3-0.9,2-2.4,2-3.9c-0.1-3.5-3.7-5.9-8.8-5.9s-8.8,2.4-8.8,5.9c0,1.5,0.8,3,2,3.9c0,0.2-0.1,0.3-0.1,0.5v0.6
									c-1.1,0.7-1.9,1.9-1.9,3.2l-1.6,23.2v0.1c0,1.2,0.7,3,3.9,4c2.1,0.6,4.4,1,6.6,0.9c5,0,10.4-1.3,10.4-4.9v-0.1L775.3,35z"/>
								<path id="Fill-18-4" class="st0" d="M766.5,25.3c0.6,0,1,0.4,1,1s-0.4,1-1,1c-0.5,0-1-0.3-1-0.9c0,0,0,0,0,0
									c0,0,0-0.1,0-0.1C765.5,25.8,765.9,25.3,766.5,25.3"/>
								<path id="Fill-20-4" class="st0" d="M763.6,23.5c0.6,0,1,0.4,1,1s-0.4,1-1,1s-1-0.4-1-1C762.6,23.9,763.1,23.5,763.6,23.5"
									/>
								<path id="Fill-22-2" class="st0" d="M769.3,23.5c0.6,0,1,0.4,1,1s-0.4,1-1,1s-1-0.4-1-1C768.3,23.9,768.7,23.5,769.3,23.5"
									/>
							</g>
							<g id="Group-28">
								<path id="Fill-1-9" class="st0" d="M835.3,35.3c0-3.6,2.9-6.6,6.6-6.6c0,0,0,0,0,0l0,0c2.1,0,4.6-0.1,7.1-0.3
									c2.8-0.2,5.8-0.3,8.6-0.3c3.1,0,6.1,0.2,8.7,0.4c1.9,0.1,3.5,0.2,4.8,0.2c1.7,0,3.3-0.8,4.5-2c0.7-0.7,1.6-1.1,2.5-1.3
									c0,0.2,0.1,0.3,0.1,0.4c0.3,1,1.2,1.7,2.2,1.8c0.5,0,0.9-0.4,0.9-0.9c0-0.5-0.4-0.9-0.9-0.9c0,0,0,0,0,0
									c-0.1,0-0.3-0.2-0.5-0.6c0.4,0,0.8,0.1,1.2,0.2l0.1,0.1l7.6,8.1c0.2,0.2,0.3,0.6,0.2,0.9c-0.1,0.1-0.2,0.3-0.3,0.4
									c-0.4,0.3-0.9,0.5-1.4,0.5h-4.7c-1.4,0-2.7,0.8-3.3,2.1c-1,2-2.2,3.8-3.7,5.4v0.2c-2.2,2.3-5.1,3.8-8.2,4.3
									c1.5-1.5,2.3-3.6,2.3-5.7c0-0.5-0.4-0.9-0.9-0.9s-0.9,0.4-0.9,0.9l0,0c0,1.7-0.7,3.3-1.9,4.5l-1.6,1.6l-0.1,0.1l-0.5,0.5
									c-0.2,0.2-0.3,0.4-0.3,0.6v11.3c0,0.3-0.2,0.5-0.4,0.5c0,0,0,0,0,0h-1.7c-0.3,0-0.5-0.2-0.5-0.5V48.5c0-0.5-0.4-0.9-0.9-0.9
									h-9.7c-1.4,0-2.6-0.8-3.2-2.1c0-0.1,0-0.1-0.1-0.1c0.7-1.2,1-2.5,0.9-3.8c0-0.5-0.4-0.9-0.9-0.9h0c-0.5,0-0.9,0.4-0.9,0.9
									c0,0,0,0,0,0c0,4.4-3.9,5.9-6.3,6.3c-1.2,0.2-2.1,1.3-2.1,2.6v9.8c0,0.3-0.2,0.5-0.4,0.5c0,0,0,0,0,0h-1.5
									c-0.3,0-0.5-0.2-0.5-0.4c0,0,0,0,0,0L835.3,35.3L835.3,35.3z M843,48.9c0.9-0.4,1.7-0.9,2.5-1.5v13c0,0.3-0.2,0.5-0.4,0.5
									c0,0,0,0,0,0h-1.7c-0.3,0-0.5-0.2-0.5-0.5L843,48.9L843,48.9z M868.8,48.9c0.9-0.2,1.7-0.5,2.5-0.8v12.2
									c0,0.3-0.2,0.5-0.4,0.5c0,0,0,0,0,0h-1.7c-0.3,0-0.5-0.2-0.5-0.5L868.8,48.9L868.8,48.9z M827.9,48.2
									c0.1,0.2,0.4,0.3,0.6,0.3c0.2,0,0.5-0.1,0.6-0.3c1.9-1.9,3-4.6,3-7.3v-5.5c0-1.6,0.9-3.1,2.3-3.9c-0.6,1.2-1,2.5-1,3.9v25.1
									c0,1.2,1,2.2,2.2,2.2h1.6c1.2,0,2.2-1,2.2-2.2v-9.8c0-0.4,0.3-0.7,0.7-0.8c0.3-0.1,0.6-0.1,1-0.2v10.8c0,1.2,1,2.2,2.2,2.2
									h1.6c1.2,0,2.2-1,2.2-2.2V48.5c0.9,0.6,2,1,3.1,1h8.8v10.9c0,1.2,1,2.2,2.2,2.2h1.6c1.2,0,2.2-1,2.2-2.2v-11
									c0.5,0,1.1,0,1.6-0.1v11.1c0,1.2,1,2.2,2.2,2.2h1.6c1.2,0,2.2-1,2.2-2.2v-13c1.4-0.8,2.7-1.8,3.8-3l0.1-0.1
									c1.6-1.8,2.9-3.7,4-5.8c0.3-0.6,1-1.1,1.7-1.1h4.8c0.9,0,1.7-0.4,2.4-0.9c0.4-0.3,0.7-0.7,0.9-1.2c0.4-1,0.2-2.1-0.5-2.9
									l-7.5-7.9c0.2-0.8,0.6-1.5,1.2-2.1c0.4-0.3,0.4-0.9,0.1-1.3c-0.3-0.4-0.9-0.4-1.3-0.1c-0.8,0.7-1.4,1.5-1.7,2.5
									c-0.3,0-0.6-0.1-1-0.1c0.2-0.4,0.5-0.8,0.9-1.1c0.4-0.3,0.4-0.9,0.1-1.3c-0.3-0.4-0.9-0.4-1.3-0.1l0,0
									c-0.8,0.7-1.4,1.6-1.7,2.6c-1.4,0.3-2.7,0.9-3.8,1.9c-0.8,0.9-2,1.4-3.2,1.4c-1.2,0-2.8-0.1-4.7-0.2
									c-2.6-0.2-5.6-0.4-8.8-0.4c-2.9,0-5.9,0.2-8.7,0.3c-2.5,0.1-4.9,0.3-7,0.3c-2,0-4,0.8-5.5,2.1c-3.3,0.2-6,2.9-6,6.3v5.5
									c0,2.3-0.9,4.5-2.5,6.1C827.6,47.4,827.6,48,827.9,48.2L827.9,48.2z"/>
								<polygon id="Fill-3-3" class="st0" points="834.7,70.4 836.5,70.4 836.5,72.7 838.5,72.7 838.5,70.4 840.3,70.4 840.3,76.3 
									838.5,76.3 838.5,74.1 836.5,74.1 836.5,76.3 834.7,76.3 								"/>
								<path id="Fill-5-3" class="st0" d="M843.3,74.6c0.4,0.4,1,0.4,1.4,0c0.2-0.2,0.3-0.5,0.3-0.8v-3.3h1.7v3.4
									c0,0.5-0.1,0.9-0.3,1.3c-0.2,0.4-0.5,0.7-0.9,0.9c-0.9,0.4-1.9,0.4-2.8,0c-0.4-0.2-0.7-0.5-1-0.9c-0.2-0.4-0.3-0.8-0.3-1.3
									v-3.4h1.7v3.4C842.9,74.1,843,74.5,843.3,74.6"/>
								<polygon id="Fill-7-3" class="st0" points="847.5,70.4 849.4,70.4 850.9,73.7 852.5,70.4 854.4,70.4 854.4,76.3 852.8,76.3 
									852.8,72.8 851.5,75.7 850.4,75.7 849,72.8 849,76.3 847.5,76.3 								"/>
								<path id="Fill-9-5" class="st0" d="M857.4,74.1h1.4l-0.7-1.9L857.4,74.1z M859.6,76.3l-0.3-0.9h-2.4l-0.3,0.9h-1.8l2.5-5.9
									h1.8l2.4,5.9H859.6z"/>
								<polygon id="Fill-11-5" class="st0" points="865.9,70.4 867.5,70.4 867.5,76.3 866,76.3 863.5,73 863.5,76.3 861.9,76.3 
									861.9,70.4 863.4,70.4 865.9,73.7 								"/>
								<polygon id="Fill-13-5" class="st0" points="868.5,70.4 873.3,70.4 873.3,71.7 870.2,71.7 870.2,72.7 873,72.7 873,74 
									870.2,74 870.2,74.9 873.3,74.9 873.3,76.3 868.5,76.3 								"/>
								<polygon id="Fill-15-5" class="st0" points="874.2,70.4 875.9,70.4 875.9,74.8 878.4,74.8 878.4,76.3 874.2,76.3 								
									"/>
								<polygon id="Fill-17-4" class="st0" points="884.4,70.4 882.3,74.4 882.3,76.3 880.6,76.3 880.6,74.4 878.4,70.4 
									880.1,70.4 881.4,72.8 882.7,70.4 								"/>
								<path id="Fill-19-4" class="st0" d="M845.1,83.5h1c0.5,0,0.8-0.4,0.8-0.9c0,0,0,0,0,0c0-0.2-0.1-0.4-0.2-0.5
									c-0.2-0.1-0.4-0.2-0.6-0.2h-1V83.5z M846.8,86.4l-0.8-1.6h-0.9v1.6h-1.7v-5.9h2.7c0.6,0,1.3,0.2,1.8,0.5
									c0.7,0.7,0.8,1.8,0.3,2.6c-0.1,0.3-0.4,0.6-0.7,0.7l1.2,1.9h-1.9L846.8,86.4z"/>
								<path id="Fill-21-4" class="st0" d="M851.5,84.1h1.4l-0.7-1.9L851.5,84.1z M853.7,86.3l-0.3-0.9H851l-0.4,0.9h-1.8l2.5-5.9
									h1.8l2.4,5.9H853.7z"/>
								<polygon id="Fill-23-4" class="st0" points="856,86.3 857.7,86.3 857.7,80.4 856,80.4 								"/>
								<path id="Fill-25-4" class="st0" d="M861.9,81.9c-0.3-0.1-0.6-0.2-0.9-0.2c-0.2,0-0.3,0-0.4,0.1s-0.1,0.1-0.1,0.3
									c0,0.2,0.1,0.3,0.2,0.4c0.3,0.1,0.5,0.2,0.8,0.3c0.4,0.1,0.7,0.2,1,0.4c0.3,0.1,0.5,0.3,0.7,0.5c0.4,0.6,0.4,1.4,0,2
									c-0.2,0.3-0.5,0.5-0.9,0.6c-0.4,0.1-0.8,0.2-1.2,0.2c-0.5,0-1-0.1-1.5-0.3c-0.5-0.2-0.9-0.4-1.3-0.7l0.7-1.3
									c0.3,0.3,0.7,0.5,1.1,0.6c0.3,0.2,0.7,0.3,1.1,0.3c0.2,0,0.3,0,0.4-0.1s0.2-0.2,0.2-0.3c0-0.2-0.1-0.3-0.3-0.4
									c-0.3-0.1-0.5-0.2-0.8-0.3c-0.4-0.1-0.7-0.2-1-0.3c-0.3-0.1-0.5-0.3-0.7-0.5c-0.2-0.3-0.3-0.6-0.3-0.9c0-0.4,0.1-0.7,0.3-1
									c0.2-0.3,0.5-0.5,0.8-0.6c0.4-0.1,0.9-0.2,1.3-0.2c0.4,0,0.9,0.1,1.3,0.2c0.4,0.1,0.8,0.3,1.1,0.5l-0.6,1.3
									C862.7,82.2,862.3,82,861.9,81.9"/>
								<polygon id="Fill-26-2" class="st0" points="864.2,80.4 868.9,80.4 868.9,81.8 865.9,81.8 865.9,82.7 868.7,82.7 868.7,84 
									865.9,84 865.9,85 869,85 869,86.3 864.2,86.3 								"/>
								<path id="Fill-27-4" class="st0" d="M873.4,84.5c0.2-0.3,0.4-0.7,0.4-1.1c0-0.4-0.1-0.8-0.4-1.1c-0.3-0.3-0.6-0.4-1-0.4
									h-0.8V85h0.9C872.9,85,873.2,84.8,873.4,84.5 M874.1,80.8c0.5,0.2,0.8,0.6,1.1,1c0.5,0.9,0.5,2.1,0,3
									c-0.3,0.4-0.6,0.8-1.1,1c-0.5,0.3-1.1,0.4-1.7,0.4h-2.5v-5.9h2.6C873.1,80.4,873.6,80.6,874.1,80.8"/>
							</g>
							<g id="Group-15">
								<path id="Fill-1-10" class="st0" d="M1084.7,26c0.1,0.2,0.1,0.4,0,0.6c-0.2,0.3-0.5,0.5-0.8,0.5c-0.1,0-0.2,0-0.3-0.1
									c-0.3-0.1-0.6-0.2-0.9-0.2c-0.5,0-0.9,0.1-1.3,0.4c-0.6,0.4-1.1,1-1.2,1.7c-0.1,0.4-0.4,0.6-0.8,0.7h-0.1
									c-0.4-0.1-0.6-0.5-0.6-0.9c0.2-1.2,0.9-2.2,1.9-2.8c1.1-0.7,2.5-0.8,3.7-0.3C1084.6,25.7,1084.7,25.9,1084.7,26 M1092.3,45
									c-1.4,0-2.8-0.3-4.1-0.9l-0.3-0.2l0.2-0.3c1.1-1.9,2.8-3.4,4.7-4.4c0.4-0.2,0.5-0.7,0.4-1.1c-0.2-0.3-0.5-0.4-0.8-0.4h-0.3
									c-1,0.6-1.9,1.2-2.8,1.9l-0.5,0.4v-0.7c-0.2-2.4-1.4-4.7-3.3-6.2c-0.1-0.1-0.3-0.2-0.5-0.2c-0.2,0-0.5,0.1-0.6,0.3
									c-0.3,0.3-0.2,0.8,0.1,1.1c0,0,0,0,0,0l0,0c2.7,2.1,3.5,5.7,1.9,8.7v0.1l0,0c-2.3,4.1-3.5,9.4-3.3,15.9
									c0,0.5-0.2,0.9-0.5,1.2c-0.3,0.3-0.8,0.5-1.2,0.5h-3.7c-0.4,0-0.9-0.1-1.2-0.4l0,0c-0.3-0.4-0.4-0.8-0.4-1.2v-2.3
									c0.1-2.8,1.1-5.4,3-7.4c0.1-0.1,0.2-0.3,0.2-0.5c0-0.2-0.1-0.4-0.3-0.6c-0.1-0.1-0.3-0.2-0.5-0.2c-0.2,0-0.4,0.1-0.6,0.3
									c-0.7,0.8-1.3,1.6-1.8,2.5l-0.4,0.7l-0.2-0.8c-0.5-3.4-1.9-6.6-3.9-9.3l0,0c-0.2-0.4-0.3-0.9-0.3-1.4c0-1.4,0.8-2.6,2.1-3.1
									c0.2-0.1,0.4-0.3,0.5-0.5c0.1-0.2,0.1-0.3,0-0.5c-0.1-0.3-0.4-0.5-0.7-0.5c-0.1,0-0.2,0-0.3,0.1c-1.5,0.6-2.7,1.9-3,3.5
									l-0.1,0.5l-0.4-0.3c-0.7-0.5-1.4-0.9-2.1-1.3c-0.1-0.1-0.2-0.1-0.3-0.1c-0.3,0-0.6,0.2-0.7,0.5c-0.1,0.2-0.1,0.3-0.1,0.5
									c0.1,0.2,0.2,0.4,0.4,0.5c1.5,0.8,2.8,1.8,3.8,3.1c0.1,0.1,0.1,0.2,0.2,0.3s0.1,0.2,0.2,0.3l0.3,0.5h-0.5
									c-3.2,2.9-8.1,2.7-11.1-0.5c-2.9-3.2-2.7-8.1,0.5-11.1c1.3-1.2,3-1.9,4.7-2c0.4,0,0.8-0.4,0.8-0.8c-0.3-0.4-0.6-0.7-1-0.7
									h-0.1c-0.9,0.1-1.8,0.3-2.6,0.6l-0.6,0.3l0.1-0.6c0.6-3.7,3.7-6.6,7.4-7h0.4l-0.1,0.4c-0.2,0.7-0.2,1.5-0.2,2.2
									c0,1.3,0.2,2.5,0.7,3.7c0.1,0.3,0.4,0.5,0.7,0.5h0.3c0.2-0.1,0.4-0.3,0.5-0.5c0.1-0.2,0.1-0.3,0-0.5c-0.4-1-0.5-2-0.5-3.1
									c0-5,4-9,9-9s9,4,9,9c0,0.4,0.3,0.8,0.8,0.8c0,0,0,0,0,0c0.4,0,0.8-0.4,0.8-0.8l0,0c0-1.6-0.3-3.1-1-4.5l-0.2-0.5h0.5
									c3.5,0.1,6.2,2.9,6.3,6.4c0,1-0.2,2.1-0.7,3c-0.2,0.3-0.2,0.7,0.2,1c0,0,0,0,0.1,0h0.1c0.1,0.1,0.3,0.1,0.4,0.1
									c0.2,0,0.6-0.1,0.7-0.4c0.1-0.2,0.2-0.3,0.2-0.5c0.1-0.2,0.1-0.3,0.2-0.5l0.2-0.4l0.3,0.2c2.7,1.7,4.3,4.6,4.3,7.8
									C1101.4,41.2,1097.3,45,1092.3,45 M1097.3,26.2l-0.2-0.1v-0.6c0-4.4-3.6-8-8-8c-0.4,0-0.8,0-1.2,0.1h-0.3v-0.2
									c-2-2.5-5.1-3.9-8.3-3.9c-4.1,0-7.8,2.4-9.5,6.1l-0.1,0.2h-0.4c-5.2,0.2-9.4,4.4-9.7,9.6v0.1l0.3,0.3l-0.3,0.2
									c-4.3,2.8-5.5,8.6-2.6,12.9c2.8,4.3,8.6,5.5,12.9,2.6c0.3-0.2,0.5-0.4,0.8-0.6c0.2-0.1,0.4-0.3,0.5-0.4l0.3-0.3l0.2,0.4
									c1.9,3.6,2.8,8.4,2.7,14.3c0,1.8,1.5,3.3,3.3,3.4h3.7c0.9,0,1.7-0.3,2.3-1c0.6-0.6,1-1.5,1-2.4c-0.1-5.3,0.6-9.9,2.3-13.5
									l0.1-0.3l0.3,0.1c1.5,0.8,3.2,1.2,4.9,1.2c5.9,0,10.8-4.7,10.8-10.7C1103.1,31.8,1100.9,28,1097.3,26.2"/>
								<polygon id="Fill-4-4" class="st0" points="1068.9,69.9 1070.6,69.9 1070.6,72.2 1072.7,72.2 1072.7,69.9 1074.4,69.9 
									1074.4,75.7 1072.7,75.7 1072.7,73.6 1070.6,73.6 1070.6,75.7 1068.9,75.7 								"/>
								<polygon id="Fill-6-4" class="st0" points="1075.4,75.7 1077.1,75.7 1077.1,69.9 1075.4,69.9 								"/>
								<path id="Fill-8-2" class="st0" d="M1081.9,72.7h1.5v2.4c-0.4,0.2-0.8,0.4-1.2,0.5c-0.4,0.1-0.9,0.2-1.3,0.2
									c-0.6,0-1.1-0.1-1.6-0.4c-0.5-0.2-0.9-0.6-1.1-1.1c-0.3-0.5-0.4-1-0.4-1.6c0-0.5,0.1-1.1,0.4-1.5c0.3-0.5,0.7-0.8,1.2-1.1
									c0.5-0.3,1.1-0.4,1.7-0.4c0.4,0,0.9,0.1,1.3,0.2c0.4,0.2,0.8,0.4,1.1,0.7l-1,1.2c-0.2-0.2-0.5-0.4-0.7-0.5
									c-0.2-0.2-0.5-0.2-0.8-0.2c-0.3,0-0.5,0.1-0.8,0.2c-0.2,0.1-0.4,0.3-0.5,0.6c-0.3,0.5-0.3,1.1,0,1.6
									c0.1,0.2,0.3,0.4,0.5,0.6c0.2,0.1,0.5,0.2,0.8,0.2c0.3,0,0.6-0.1,0.9-0.2V72.7z"/>
								<polygon id="Fill-9-6" class="st0" points="1084.3,69.9 1086,69.9 1086,72.2 1088.1,72.2 1088.1,69.9 1089.8,69.9 
									1089.8,75.7 1088.1,75.7 1088.1,73.6 1086,73.6 1086,75.7 1084.3,75.7 								"/>
								<polygon id="Fill-10-2" class="st0" points="1067.1,79.9 1071.6,79.9 1071.6,81.2 1068.8,81.2 1068.8,82.4 1071.4,82.4 
									1071.4,83.7 1068.8,83.7 1068.8,85.7 1067.1,85.7 								"/>
								<polygon id="Fill-11-6" class="st0" points="1072.2,85.7 1073.9,85.7 1073.9,79.9 1072.2,79.9 								"/>
								<path id="Fill-12-2" class="st0" d="M1078.2,84.3c0.2-0.2,0.3-0.5,0.1-0.7c0,0-0.1-0.1-0.1-0.1c-0.2-0.1-0.3-0.1-0.5-0.1h-1
									v1.1h1C1077.9,84.4,1078.1,84.4,1078.2,84.3 M1078.1,82c0.2-0.2,0.3-0.5,0.1-0.7c0,0-0.1-0.1-0.1-0.1
									c-0.1-0.1-0.2-0.1-0.4-0.1h-1v1h1C1077.8,82.2,1078,82.1,1078.1,82 M1078.9,80.1c0.3,0.1,0.6,0.3,0.8,0.5
									c0.4,0.5,0.4,1.1,0,1.6c-0.2,0.2-0.4,0.4-0.7,0.5c0.3,0.1,0.7,0.2,0.9,0.5c0.2,0.3,0.3,0.6,0.3,1c0,0.3-0.1,0.6-0.3,0.9
									c-0.2,0.2-0.5,0.4-0.8,0.6c-0.4,0.1-0.8,0.2-1.2,0.2h-3v-5.8h2.9C1078.1,79.9,1078.5,79.9,1078.9,80.1"/>
								<polygon id="Fill-13-6" class="st0" points="1080.9,79.9 1085.7,79.9 1085.7,81.2 1082.6,81.2 1082.6,82.1 1085.4,82.1 
									1085.4,83.5 1082.6,83.5 1082.6,84.4 1085.7,84.4 1085.7,85.7 1080.9,85.7 								"/>
								<path id="Fill-14-4" class="st0" d="M1088.3,82.8h1c0.4,0.1,0.7-0.2,0.8-0.6c0,0,0,0,0,0c0-0.1,0-0.1,0-0.2
									c0-0.2-0.1-0.4-0.2-0.6c-0.2-0.1-0.4-0.2-0.6-0.2h-1L1088.3,82.8z M1090,85.7l-0.8-1.6h-0.9v1.6h-1.7v-5.8h2.7
									c0.6,0,1.3,0.2,1.8,0.5c0.7,0.7,0.8,1.8,0.3,2.6c-0.1,0.3-0.4,0.6-0.7,0.7l1.2,1.9h-1.9V85.7z"/>
							</g>
						</g>
					</g>
				</g>
				<path class="st1" d="M233.9,81.9c0.3-0.3,0.3-0.7,0-1c-0.2-0.1-0.4-0.2-0.6-0.2h-0.9v1.4h0.9C233.5,82.1,233.7,82,233.9,81.9z"
					/>
				<path class="st1" d="M247.8,71.6h-0.9V73h0.9c0.4,0,0.7-0.3,0.7-0.7c0,0,0,0,0,0c0-0.2-0.1-0.3-0.2-0.5
					C248.1,71.6,247.9,71.6,247.8,71.6z"/>
				<path class="st1" d="M258.2,71.6h-0.7v2.8h0.8c0.3,0,0.7-0.2,0.9-0.4l0,0c0.2-0.3,0.4-0.6,0.3-1c0-0.4-0.1-0.7-0.4-1
					C258.8,71.8,258.5,71.6,258.2,71.6z"/>
				<path class="st1" d="M220.1,74L220.1,74c0.2-0.3,0.3-0.6,0.3-1c0-0.4-0.1-0.7-0.4-1c-0.2-0.3-0.6-0.4-0.9-0.4h-0.7v2.8h0.8
					C219.5,74.5,219.9,74.3,220.1,74z"/>
				<polygon class="st1" points="255.1,71.6 255.1,70.4 250.7,70.4 250.7,75.6 255.1,75.6 255.1,74.4 252.3,74.4 252.3,73.6 
					254.8,73.6 254.8,72.4 252.3,72.4 252.3,71.6 				"/>
				<polygon class="st1" points="236.3,84.7 240.7,84.7 240.7,83.5 237.9,83.5 237.9,82.6 240.4,82.6 240.4,81.4 237.9,81.4 
					237.9,80.6 240.6,80.6 240.6,79.4 236.3,79.4 				"/>
				<path class="st1" d="M243.6,79.3c-0.4,0-0.7,0.1-1.1,0.2c-0.6,0.2-1.1,0.8-1.1,1.5c0,0.3,0.1,0.6,0.3,0.8
					c0.2,0.2,0.4,0.4,0.6,0.5l0.9,0.3c0.3,0.1,0.5,0.1,0.7,0.3s0.2,0.2,0.2,0.3s-0.1,0.2-0.1,0.3c-0.1,0.1-0.3,0.1-0.4,0.1
					c-0.3,0-0.7-0.1-1-0.2c-0.4-0.1-0.7-0.3-1-0.6L241,84c0.3,0.3,0.8,0.5,1.2,0.6c0.4,0.1,0.9,0.2,1.3,0.1c0.4,0,0.7-0.1,1.1-0.2
					c0.3-0.1,0.6-0.3,0.8-0.6c0.2-0.3,0.3-0.6,0.3-0.9c0-0.3-0.1-0.6-0.3-0.8c-0.2-0.2-0.4-0.4-0.6-0.5l-0.9-0.3
					c-0.2-0.1-0.5-0.1-0.7-0.3s-0.2-0.2-0.2-0.3s0-0.2,0.1-0.2c0.1-0.1,0.2-0.1,0.3-0.1c0.3,0,0.6,0.1,0.8,0.2
					c0.3,0.1,0.6,0.3,0.9,0.5l0.7-1.2c-0.3-0.2-0.7-0.3-1-0.5C244.3,79.4,243.9,79.3,243.6,79.3z"/>
				<polygon class="st1" points="249.8,81.5 248,81.5 248,79.4 246.4,79.4 246.4,84.7 248,84.7 248,82.7 249.8,82.7 249.8,84.7 
					251.4,84.7 251.4,79.4 249.8,79.4 				"/>
				<rect x="232.1" y="70.4" class="st1" width="1.6" height="5.3"/>
				<path class="st1" d="M220.7,75.3c0.4-0.2,0.8-0.5,1-0.9c0.2-0.4,0.4-0.9,0.4-1.4c0-0.5-0.1-1-0.4-1.4c-0.2-0.4-0.6-0.7-1-0.9
					c-0.5-0.2-1-0.3-1.5-0.3h-2.3v5.3h2.3C219.7,75.7,220.2,75.5,220.7,75.3z M218.5,71.6h0.7c0.3,0,0.7,0.1,0.9,0.4
					c0.2,0.3,0.4,0.6,0.4,1c0,0.4-0.1,0.7-0.3,1l0,0c-0.2,0.3-0.6,0.4-0.9,0.4h-0.8L218.5,71.6L218.5,71.6z"/>
				<path class="st1" d="M230.9,84.7h1.5v-1.4h0.8l0.7,1.4h1.9l-1.1-1.7c0.3-0.2,0.5-0.4,0.7-0.7c0.2-0.3,0.2-0.7,0.2-1
					c0-0.5-0.2-1-0.6-1.4c-0.5-0.4-1.1-0.5-1.7-0.5h-2.5v5.3L230.9,84.7z M232.4,80.6h0.9c0.2,0,0.4,0.1,0.6,0.2
					c0.3,0.3,0.3,0.7,0,1c-0.2,0.1-0.4,0.2-0.6,0.2h-0.9V80.6z"/>
				<path class="st1" d="M249.8,73.2c0.2-0.3,0.2-0.7,0.2-1c0-0.5-0.2-1-0.6-1.4c-0.5-0.4-1.1-0.5-1.7-0.5h-2.5v5.3h1.6v-1.4h0.8
					l0.7,1.4h1.8l-1.1-1.7C249.3,73.7,249.6,73.5,249.8,73.2z M248.3,72.8c-0.1,0.1-0.3,0.2-0.5,0.2h-0.9v-1.4h0.9
					c0.4,0,0.7,0.3,0.7,0.7c0,0,0,0,0,0C248.4,72.5,248.4,72.7,248.3,72.8z"/>
				<polygon class="st1" points="226.9,71.6 226.9,70.4 222.6,70.4 222.6,75.6 227,75.6 227,74.4 224.2,74.4 224.2,73.6 226.7,73.6 
					226.7,72.4 224.2,72.4 224.2,71.6 				"/>
				<polygon class="st1" points="244.5,71.6 244.5,70.4 240.2,70.4 240.2,75.6 244.5,75.6 244.5,74.4 241.7,74.4 241.7,73.6 
					244.2,73.6 244.2,72.4 241.7,72.4 241.7,71.6 				"/>
				<polygon class="st1" points="227.8,70.4 227.8,75.6 231.5,75.6 231.5,74.3 229.3,74.3 229.3,70.4 				"/>
				<polygon class="st1" points="236.9,74 235.7,70.4 234.1,70.4 236,75.6 237.7,75.6 239.7,70.4 238.1,70.4 				"/>
				<polygon class="st1" points="226.2,84.7 227.8,84.7 227.8,82.9 230.2,82.9 230.2,81.6 227.8,81.6 227.8,80.6 230.3,80.6 
					230.3,79.4 226.2,79.4 				"/>
				<path class="st1" d="M239,63.7c12.7,0,23-10.3,23-23s-10.3-23-23-23s-23,10.3-23,23S226.3,63.7,239,63.7L239,63.7z M258.1,49.2
					c-3.4,7.5-10.8,12.4-19.1,12.4l0,0c-5.2,0-10.2-1.9-14-5.4l6.3-6.3l23.2-23.2C260,32.8,261.4,41.6,258.1,49.2z M230.5,21.6
					c7.6-3.3,16.4-1.9,22.5,3.6l-23.2,23.2l-6.3,6.3c-3.5-3.8-5.4-8.8-5.4-14C218.1,32.4,222.9,25,230.5,21.6z"/>
				<path class="st1" d="M224,46.9c-0.1,0.2-0.1,0.3,0,0.5c0.1,0.3,0.3,0.5,0.6,0.5c0.3,0,0.6-0.1,0.7-0.4l1.4-2.8l1.5-0.5l-1.5,2.9
					c-0.1,0.2-0.1,0.3,0,0.5c0.2,0.4,0.6,0.6,1,0.4c0.1-0.1,0.3-0.2,0.3-0.3l2.1-4.2l4.3-1.4l6-6.1l1-4.9l3.8-2.1
					c0.2-0.1,0.3-0.2,0.3-0.4c0.1-0.2,0-0.4-0.1-0.5c-0.1-0.2-0.2-0.3-0.4-0.4c-0.2-0.1-0.4,0-0.6,0.1l-2.7,1.5l0.3-1.5l2.6-1.5
					c0.2-0.1,0.3-0.2,0.3-0.4c0-0.2,0-0.3-0.1-0.5c-0.1-0.2-0.2-0.3-0.4-0.3c-0.2,0-0.3,0-0.5,0.1l-1.5,0.8l0.6-2.9
					c0-0.4-0.3-0.7-0.7-0.7c-0.3,0-0.6,0.2-0.7,0.5l-0.6,2.8l-1-1.4c-0.2-0.3-0.7-0.4-1-0.2c-0.3,0.2-0.4,0.5-0.3,0.8
					c0,0.1,0.1,0.1,0.1,0.2l1.7,2.6l-0.3,1.5l-1.8-2.7c-0.2-0.3-0.7-0.4-1-0.2c-0.3,0.2-0.4,0.5-0.3,0.8c0,0.1,0,0.1,0.1,0.2
					l2.5,3.9l-1.4,6.8l-1.5-4.5c-0.1-0.2-0.2-0.3-0.4-0.4c-0.2-0.1-0.3-0.1-0.5,0c-0.2,0.1-0.3,0.2-0.4,0.4c-0.1,0.2-0.1,0.3,0,0.5
					l1.3,3.9l-5.6-4.6L231,29c0-0.4-0.3-0.7-0.7-0.7l0,0c-0.4,0-0.7,0.3-0.7,0.7c0,0,0,0,0,0l0,0l0.1,3l-1.2-1l-0.1-3
					c0-0.4-0.3-0.7-0.7-0.7s-0.7,0.3-0.7,0.7c0,0,0,0,0,0l0,0l0.1,1.7l-2.3-1.9c-0.2-0.1-0.4-0.2-0.6-0.2c-0.2,0-0.4,0.1-0.5,0.3
					c-0.2,0.2-0.2,0.5-0.1,0.7c0,0.1,0.1,0.2,0.2,0.3l2.3,1.8l-1.7,0.2c-0.4,0-0.6,0.3-0.6,0.7c0,0,0,0,0,0c0,0,0,0.1,0,0.1v0.2
					c0.1,0.3,0.5,0.5,0.8,0.5l3.1-0.3l1.2,1l-3.2,0.3c-0.2,0-0.4,0.1-0.5,0.3c-0.1,0.1-0.2,0.3-0.2,0.5v0.2c0.1,0.3,0.5,0.5,0.8,0.5
					l4.6-0.4l5.7,4.7l-4.2-0.8c-0.3-0.1-0.7,0.1-0.8,0.5c0,0,0,0.1,0,0.1v0.4c0.1,0.2,0.3,0.4,0.6,0.5l4.2,0.8l-6.5,2.1l-3.6-2.2
					c-0.2-0.1-0.3-0.1-0.5-0.1c-0.2,0-0.3,0.2-0.4,0.3c-0.1,0.2-0.1,0.3-0.1,0.5c0,0.2,0.2,0.3,0.3,0.4l2.6,1.5l-1.5,0.5l-2.6-1.5
					c-0.3-0.2-0.8-0.1-1,0.2c0,0,0,0,0,0c0,0,0,0,0,0c-0.1,0.2-0.1,0.3-0.1,0.5c0.1,0.2,0.2,0.3,0.3,0.4l1.5,0.8l-2.8,0.9
					c-0.2,0.1-0.3,0.2-0.4,0.4c-0.1,0.2-0.1,0.3,0,0.5c0.1,0.4,0.5,0.6,0.9,0.5l0,0l2.7-0.9L224,46.9z"/>
				<path class="st1" d="M260.7,74.4c0.2-0.4,0.4-0.9,0.4-1.4c0-0.5-0.1-1-0.4-1.4c-0.2-0.4-0.6-0.7-1-0.9c-0.5-0.2-1-0.3-1.5-0.3
					h-2.3v5.3h2.3c0.5,0,1-0.1,1.5-0.3C260.1,75.1,260.5,74.8,260.7,74.4z M259.1,74L259.1,74c-0.2,0.3-0.6,0.4-0.9,0.4h-0.8v-2.8
					h0.7c0.3,0,0.7,0.1,0.9,0.4c0.2,0.3,0.4,0.6,0.4,1C259.5,73.4,259.4,73.7,259.1,74L259.1,74z"/>
				<path class="st1" d="M233.2,53.3c0.2,0.1,0.4,0,0.5-0.1l2.7-1.5l-0.3,1.5l-2.6,1.5c-0.2,0.1-0.3,0.2-0.3,0.4
					c0,0.2,0,0.4,0.1,0.5c0.1,0.2,0.2,0.3,0.4,0.3c0.2,0,0.4,0,0.5-0.1l1.5-0.8l-0.6,2.9c0,0.2,0,0.4,0.1,0.5
					c0.1,0.2,0.3,0.3,0.5,0.3c0.3,0.1,0.7-0.1,0.8-0.5c0,0,0,0,0,0c0,0,0-0.1,0-0.1l0.6-2.8l1,1.4c0.2,0.3,0.7,0.4,1,0.2
					c0.3-0.2,0.4-0.5,0.3-0.8c0-0.1,0-0.1-0.1-0.2l-1.7-2.6l0.3-1.5l1.8,2.7c0.2,0.3,0.7,0.4,1,0.2c0.3-0.2,0.4-0.5,0.3-0.8
					c0-0.1,0-0.1-0.1-0.2l-2.5-3.9l1.5-6.8l1.5,4.5c0.1,0.4,0.5,0.6,0.9,0.5l0,0c0.2-0.1,0.3-0.2,0.4-0.4c0.1-0.2,0.1-0.3,0-0.5
					l-1.3-3.9l5.6,4.6l0.2,4.3c0,0.4,0.3,0.7,0.6,0.7c0,0,0,0,0,0l0,0c0.4,0,0.7-0.3,0.7-0.6c0,0,0,0,0,0l0,0l-0.1-3l1.2,1l0.1,3
					c0,0.4,0.3,0.7,0.7,0.7c0.4,0,0.7-0.3,0.7-0.7l-0.1-1.7l2.3,1.9c0.3,0.2,0.7,0.2,1-0.1c0.2-0.2,0.2-0.5,0.1-0.7
					c0-0.1-0.1-0.2-0.2-0.3l-2.3-1.8l1.7-0.2c0.4,0,0.7-0.3,0.7-0.6c0,0,0,0,0,0v-0.2c-0.1-0.3-0.5-0.5-0.8-0.5l-3.1,0.3l-1.2-1
					l3.2-0.3c0.4,0,0.7-0.4,0.7-0.8V47c-0.1-0.3-0.5-0.5-0.8-0.5l-4.6,0.4l-5.7-4.7l4.3,0.8c0.3,0.1,0.7-0.1,0.8-0.5c0,0,0,0,0,0
					c0,0,0-0.1,0-0.1V42c-0.1-0.2-0.3-0.4-0.5-0.5l-4.2-0.8l6.5-2.1l3.7,2.2c0.2,0.1,0.3,0.1,0.5,0.1c0.2,0,0.3-0.2,0.4-0.3
					c0.1-0.2,0.1-0.3,0.1-0.5c0-0.1-0.2-0.3-0.3-0.4l-2.6-1.5l1.5-0.5l2.6,1.5c0.3,0.1,0.7,0,0.9-0.3c0.1-0.2,0.1-0.3,0.1-0.5
					c-0.1-0.1-0.2-0.3-0.3-0.4l-1.5-0.8l2.8-0.9c0.3-0.1,0.5-0.5,0.5-0.8c-0.1-0.4-0.5-0.6-0.9-0.5c0,0,0,0,0,0l0,0l-2.7,0.9
					l0.8-1.6c0.1-0.2,0.1-0.3,0-0.5c-0.1-0.3-0.3-0.5-0.6-0.5c-0.3,0-0.6,0.1-0.7,0.4l-1.4,2.8l-1.5,0.5l1.5-2.9
					c0.1-0.2,0.1-0.3,0-0.5c-0.2-0.4-0.7-0.6-1.1-0.4c-0.1,0.1-0.2,0.2-0.3,0.3l-2.1,4.2l-4.4,1.4l-6,6.1l-1,4.9l-3.7,2.1
					c-0.2,0.1-0.3,0.2-0.3,0.4c-0.1,0.2,0,0.4,0.1,0.5C232.8,53.1,233,53.2,233.2,53.3z"/>
			</g>
		</g>
	</g>
</g>
</svg>
